<svg version="1.1" xmlns="http://www.w3.org/2000/svg" viewBox="0 0 1796.8924302788841 848.4383442292162" width="1796.8924302788841" height="848.4383442292162" filter="invert(93%) hue-rotate(180deg)"><!-- svg-source:excalidraw --><metadata></metadata><defs><style class="style-fonts">
      @font-face { font-family: Nunito; src: url(https://esm.sh/@excalidraw/excalidraw/dist/prod/@fs/opt/excalidraw/packages/excalidraw/fonts/Nunito/Nunito-Regular-XRXI3I6Li01BKofiOc5wtlZ2di8HDIkhdTQ3j6zbXWjgeg.woff2); }</style></defs><rect x="0" y="0" width="1796.8924302788841" height="848.4383442292162" fill="#ffffff"></rect><g stroke-linecap="round" transform="translate(592.9413356233081 224.20138401662643) rotate(0 122.50000000000006 42)"><path d="M21 0 C94.34 1.23, 166.01 2.09, 224 0 M21 0 C93.01 -1.27, 164.59 -0.23, 224 0 M224 0 C237.14 -0.74, 244.1 7.51, 245 21 M224 0 C238.4 1.63, 243.32 8.6, 245 21 M245 21 C244.68 37.69, 243.77 52.84, 245 63 M245 21 C244.18 34.79, 244.99 47.82, 245 63 M245 63 C243.32 75.43, 238.89 84.11, 224 84 M245 63 C242.82 79.23, 237.97 86.13, 224 84 M224 84 C152.77 83.58, 83.71 82.51, 21 84 M224 84 C160.01 84.51, 95.42 84.72, 21 84 M21 84 C8.5 85.08, 0.96 78.36, 0 63 M21 84 C7.23 84.15, -1.9 75.94, 0 63 M0 63 C1.12 51.21, -0.93 40.71, 0 21 M0 63 C1.11 47.43, 0.58 33.91, 0 21 M0 21 C-0.18 5.37, 6.37 0.38, 21 0 M0 21 C2.16 5.62, 5.09 0.37, 21 0" stroke="#1e1e1e" stroke-width="2" fill="none"></path></g><g transform="translate(649.999669973894 252.70138401662643) rotate(0 65.44166564941406 13.5)"><text x="65.44166564941406" y="20.08" font-family="Nunito, Segoe UI Emoji" font-size="20px" fill="#1e1e1e" text-anchor="middle" style="white-space: pre;" direction="ltr" dominant-baseline="alphabetic">WAN Address</text></g><g mask="url(#mask-dh8H0w-j5ZCXxlo4d93eG)" stroke-linecap="round"><g transform="translate(404.189345541179 251.8835029643875) rotate(0 92.7368149209911 -0.3593092420953212)"><path d="M-1.17 -0.58 C29.78 -0.68, 154.44 -0.07, 185.45 -0.2 M0.41 1.73 C31.22 1.24, 153.93 -1.71, 184.49 -2.06" stroke="#1e1e1e" stroke-width="2" fill="none"></path></g><g transform="translate(404.189345541179 251.8835029643875) rotate(0 92.7368149209911 -0.3593092420953212)"><path d="M161.16 6.93 C166.67 4.62, 174.98 1.17, 184.49 -2.06 M161.16 6.93 C166.65 4.74, 173.65 2.35, 184.49 -2.06" stroke="#1e1e1e" stroke-width="2" fill="none"></path></g><g transform="translate(404.189345541179 251.8835029643875) rotate(0 92.7368149209911 -0.3593092420953212)"><path d="M160.85 -10.17 C166.49 -7.72, 174.89 -6.41, 184.49 -2.06 M160.85 -10.17 C166.29 -8.14, 173.37 -6.3, 184.49 -2.06" stroke="#1e1e1e" stroke-width="2" fill="none"></path></g></g><mask id="mask-dh8H0w-j5ZCXxlo4d93eG"><rect x="0" y="0" fill="#fff" width="689.6629753831612" height="352.60212144857815"></rect><rect x="437.3511596992305" y="238.02419372229218" fill="#000" width="119.1500015258789" height="27" opacity="1"></rect></mask><g transform="translate(437.3511596992306 238.02419372229224) rotate(0 58.97724989801657 13.697109588263544)"><text x="59.57500076293945" y="20.08" font-family="Nunito, Segoe UI Emoji" font-size="20px" fill="#1e1e1e" text-anchor="middle" style="white-space: pre;" direction="ltr" dominant-baseline="alphabetic">HTTPS (443)</text></g><g mask="url(#mask-CGuPtvTwnLTRjs-jI7SRj)" stroke-linecap="round"><g transform="translate(406.6349124981242 288.9797393540588) rotate(0 92.68101476871436 -2.3690022088957505)"><path d="M-0.37 -0.4 C30.38 -1.31, 154.4 -4.91, 185.32 -5.44 M1.63 -1.66 C32.16 -2.43, 153.91 -3.66, 184.35 -4.27" stroke="#1e1e1e" stroke-width="2" fill="none"></path></g><g transform="translate(406.6349124981242 288.9797393540588) rotate(0 92.68101476871436 -2.3690022088957505)"><path d="M160.99 4.62 C168.86 1.38, 176.92 -2.1, 184.35 -4.27 M160.99 4.62 C171.11 1.11, 180.02 -3.02, 184.35 -4.27" stroke="#1e1e1e" stroke-width="2" fill="none"></path></g><g transform="translate(406.6349124981242 288.9797393540588) rotate(0 92.68101476871436 -2.3690022088957505)"><path d="M160.74 -12.47 C168.71 -9.46, 176.85 -6.69, 184.35 -4.27 M160.74 -12.47 C170.95 -9.18, 179.96 -6.49, 184.35 -4.27" stroke="#1e1e1e" stroke-width="2" fill="none"></path></g></g><mask id="mask-CGuPtvTwnLTRjs-jI7SRj"><rect x="0" y="0" fill="#fff" width="691.9969420355529" height="393.7177437718503"></rect><rect x="451.92426085448506" y="273.110737145163" fill="#000" width="94.78333282470703" height="27" opacity="1"></rect></mask><g transform="translate(451.92426085448506 273.11073714516306) rotate(0 47.185767401754845 12.948859392106556)"><text x="47.391666412353516" y="20.08" font-family="Nunito, Segoe UI Emoji" font-size="20px" fill="#1e1e1e" text-anchor="middle" style="white-space: pre;" direction="ltr" dominant-baseline="alphabetic">HTTP (80)</text></g><g mask="url(#mask-hDt5wmiES1iQaB3F3jpQq)" stroke-linecap="round"><g transform="translate(838.8857292110632 284.9927118039098) rotate(0 114.69339273101502 0.9167547186293348)"><path d="M-0.31 1.05 C38.03 1.41, 191.49 1.45, 229.66 1.58 M1.73 0.55 C39.97 1.15, 191.21 2.55, 228.86 2.98" stroke="#1e1e1e" stroke-width="2" fill="none"></path></g><g transform="translate(838.8857292110632 284.9927118039098) rotate(0 114.69339273101502 0.9167547186293348)"><path d="M205.28 11.29 C213.38 9.58, 217.52 5.83, 228.86 2.98 M205.28 11.29 C211.85 8.58, 219.47 6.76, 228.86 2.98" stroke="#1e1e1e" stroke-width="2" fill="none"></path></g><g transform="translate(838.8857292110632 284.9927118039098) rotate(0 114.69339273101502 0.9167547186293348)"><path d="M205.46 -5.81 C213.42 -2.94, 217.52 -2.12, 228.86 2.98 M205.46 -5.81 C211.92 -3.39, 219.49 -0.07, 228.86 2.98" stroke="#1e1e1e" stroke-width="2" fill="none"></path></g></g><mask id="mask-hDt5wmiES1iQaB3F3jpQq"><rect x="0" y="0" fill="#fff" width="1168.2725146730932" height="386.82622124116847"></rect><rect x="906.1874555297247" y="272.4094665225392" fill="#000" width="94.78333282470703" height="27" opacity="1"></rect></mask><g transform="translate(906.1874555297245 272.4094665225391) rotate(0 47.37452143281712 14.3478171607386)"><text x="47.391666412353516" y="20.08" font-family="Nunito, Segoe UI Emoji" font-size="20px" fill="#1e1e1e" text-anchor="middle" style="white-space: pre;" direction="ltr" dominant-baseline="alphabetic">HTTP (80)</text></g><g mask="url(#mask-NLOg6VfxPe5Q9izQCPDTy)" stroke-linecap="round"><g transform="translate(839.3612518930012 247.9056062444339) rotate(0 113.77006735426085 1.3131073809474856)"><path d="M-0.58 0.23 C37.52 0.39, 190.38 1.05, 228.27 1.52 M1.31 -0.7 C39.36 -0.47, 189.71 2.2, 227.7 2.48" stroke="#1e1e1e" stroke-width="2" fill="none"></path></g><g transform="translate(839.3612518930012 247.9056062444339) rotate(0 113.77006735426085 1.3131073809474856)"><path d="M204.1 10.72 C210.81 9.82, 214.95 5.1, 227.7 2.48 M204.1 10.72 C212.82 8.09, 220.71 4.59, 227.7 2.48" stroke="#1e1e1e" stroke-width="2" fill="none"></path></g><g transform="translate(839.3612518930012 247.9056062444339) rotate(0 113.77006735426085 1.3131073809474856)"><path d="M204.32 -6.38 C211.05 -2.67, 215.13 -2.77, 227.7 2.48 M204.32 -6.38 C212.96 -3.25, 220.78 -1.01, 227.7 2.48" stroke="#1e1e1e" stroke-width="2" fill="none"></path></g></g><mask id="mask-NLOg6VfxPe5Q9izQCPDTy"><rect x="0" y="0" fill="#fff" width="1166.901386601523" height="350.53182100632887"></rect><rect x="893.5563184843224" y="235.71871362538133" fill="#000" width="119.1500015258789" height="27" opacity="1"></rect></mask><g transform="translate(893.5563184843227 235.71871362538138) rotate(0 59.64775584787128 13.075985389603318)"><text x="59.57500076293945" y="20.08" font-family="Nunito, Segoe UI Emoji" font-size="20px" fill="#1e1e1e" text-anchor="middle" style="white-space: pre;" direction="ltr" dominant-baseline="alphabetic">HTTPS (443)</text></g><g stroke-linecap="round" transform="translate(1074.9227406112595 229.66268493491384) rotate(0 122.5 42)"><path d="M21 0 C99.95 -0.04, 179.84 -0.04, 224 0 M21 0 C65.65 1.03, 111.12 0.97, 224 0 M224 0 C239.25 -0.73, 243.12 6.94, 245 21 M224 0 C236.76 -0.93, 244.98 5.1, 245 21 M245 21 C244.84 29.97, 245.98 41.19, 245 63 M245 21 C244.47 37.12, 244.99 51.29, 245 63 M245 63 C244.34 78.72, 238.6 85.03, 224 84 M245 63 C246.46 76.03, 239.36 82.91, 224 84 M224 84 C148.12 84.59, 72.64 82.12, 21 84 M224 84 C156.38 85.42, 87.7 84.49, 21 84 M21 84 C7.85 84.04, 0.34 75.89, 0 63 M21 84 C6.48 84.4, -1.09 76.68, 0 63 M0 63 C-1.7 49.41, -1.38 35.53, 0 21 M0 63 C0.76 49.04, -0.64 33.48, 0 21 M0 21 C-1.82 7.59, 6.68 -1.94, 21 0 M0 21 C-0.25 6.68, 8.25 -0.01, 21 0" stroke="#1e1e1e" stroke-width="2" fill="none"></path></g><g transform="translate(1154.7310749618455 258.16268493491384) rotate(0 42.69166564941406 13.5)"><text x="42.69166564941406" y="20.08" font-family="Nunito, Segoe UI Emoji" font-size="20px" fill="#1e1e1e" text-anchor="middle" style="white-space: pre;" direction="ltr" dominant-baseline="alphabetic">Virtual IP</text></g><g mask="url(#mask-qsBWYYkjwrzAlKmUmoYg3)" stroke-linecap="round"><g transform="translate(1289.9364399272285 313.9915021355087) rotate(0 29.546070617459122 141.4570437815987)"><path d="M-0.59 -0.47 C2.36 25.46, 8.61 108.24, 18.7 155.46 C28.79 202.68, 53.15 261.74, 59.95 282.85 M1.3 -1.76 C4 24.29, 7.94 108.76, 17.66 156.41 C27.39 204.05, 52.59 263.07, 59.64 284.13" stroke="#1e1e1e" stroke-width="2" fill="none"></path></g><g transform="translate(1289.9364399272285 313.9915021355087) rotate(0 29.546070617459122 141.4570437815987)"><path d="M43.45 265.07 C48.82 272.13, 53.88 281.09, 59.64 284.13 M43.45 265.07 C47.59 270.47, 52.6 275.41, 59.64 284.13" stroke="#1e1e1e" stroke-width="2" fill="none"></path></g><g transform="translate(1289.9364399272285 313.9915021355087) rotate(0 29.546070617459122 141.4570437815987)"><path d="M59.48 259.13 C58.74 268.36, 57.7 279.59, 59.64 284.13 M59.48 259.13 C58.93 266.16, 59.21 272.86, 59.64 284.13" stroke="#1e1e1e" stroke-width="2" fill="none"></path></g></g><mask id="mask-qsBWYYkjwrzAlKmUmoYg3"><rect x="0" y="0" fill="#fff" width="1449.0285811621468" height="696.9055896987061"></rect><rect x="1249.2297801135537" y="457.07645843904413" fill="#000" width="119.1500015258789" height="27" opacity="1"></rect></mask><g transform="translate(1249.2297801135537 457.07645843904425) rotate(0 70.38642006340069 -1.9003063764114358)"><text x="59.57500076293945" y="20.08" font-family="Nunito, Segoe UI Emoji" font-size="20px" fill="#1e1e1e" text-anchor="middle" style="white-space: pre;" direction="ltr" dominant-baseline="alphabetic">HTTPS (443)</text></g><g mask="url(#mask-Je9RU54CKIot1VhPegmI1)" stroke-linecap="round"><g transform="translate(1324.036178644018 250.31725412304792) rotate(0 149.23274034620317 107.6633424945951)"><path d="M-1.18 -0.34 C38.49 5.42, 188.04 -0.9, 238.15 35.08 C288.26 71.06, 289.39 185.49, 299.49 215.54 M0.41 -1.57 C39.99 3.81, 187.95 -3.07, 237.76 33.35 C287.56 69.78, 289.03 186.45, 299.26 216.97" stroke="#1e1e1e" stroke-width="2" fill="none"></path></g><g transform="translate(1324.036178644018 250.31725412304792) rotate(0 149.23274034620317 107.6633424945951)"><path d="M286.66 195.38 C290.12 204.02, 295.88 210.73, 299.26 216.97 M286.66 195.38 C290.13 202.74, 295.55 209.78, 299.26 216.97" stroke="#1e1e1e" stroke-width="2" fill="none"></path></g><g transform="translate(1324.036178644018 250.31725412304792) rotate(0 149.23274034620317 107.6633424945951)"><path d="M303.48 192.33 C301.69 201.76, 302.19 209.42, 299.26 216.97 M303.48 192.33 C301.61 200.66, 301.68 208.67, 299.26 216.97" stroke="#1e1e1e" stroke-width="2" fill="none"></path></g></g><mask id="mask-Je9RU54CKIot1VhPegmI1"><rect x="0" y="0" fill="#fff" width="1722.5016593364244" height="565.6439391122381"></rect><rect x="1513.7371516487356" y="271.1534836714478" fill="#000" width="94.78333282470703" height="27" opacity="1"></rect></mask><g transform="translate(1513.7371516487358 271.1534836714477) rotate(0 -40.54512490109471 86.86325593358995)"><text x="47.391666412353516" y="20.08" font-family="Nunito, Segoe UI Emoji" font-size="20px" fill="#1e1e1e" text-anchor="middle" style="white-space: pre;" direction="ltr" dominant-baseline="alphabetic">HTTP (80)</text></g><g stroke-linecap="round" transform="translate(1461.8345663858045 466.9307467116625) rotate(0 122.5 42)"><path d="M21 0 C78 -0.44, 132.41 -1.79, 224 0 M21 0 C73.34 -1.58, 126.86 -0.96, 224 0 M224 0 C239.93 1.89, 245.01 7.12, 245 21 M224 0 C239.2 -2.28, 244.21 8.56, 245 21 M245 21 C246.74 32.25, 243.18 41.14, 245 63 M245 21 C245.08 31, 244.13 41.42, 245 63 M245 63 C244.58 75.83, 237.7 85.33, 224 84 M245 63 C245.03 77.2, 238.93 85.16, 224 84 M224 84 C152.9 81.28, 82.14 83, 21 84 M224 84 C155.98 85.32, 89.07 84.91, 21 84 M21 84 C8.58 82.77, 0.11 77.24, 0 63 M21 84 C8.44 83.46, -1.91 78.16, 0 63 M0 63 C0.81 49.86, 1.63 34.01, 0 21 M0 63 C0.5 46.24, 0.49 31.11, 0 21 M0 21 C-1.06 8, 7.78 -1.1, 21 0 M0 21 C-0.95 7.58, 6.62 -0.25, 21 0" stroke="#1e1e1e" stroke-width="2" fill="none"></path></g><g transform="translate(1514.6928961587537 495.4307467116625) rotate(0 69.64167022705078 13.5)"><text x="69.64167022705078" y="20.08" font-family="Nunito, Segoe UI Emoji" font-size="20px" fill="#1e1e1e" text-anchor="middle" style="white-space: pre;" direction="ltr" dominant-baseline="alphabetic">HTTP Frontend</text></g><g stroke-linecap="round" transform="translate(1291.847846598288 597.2494718112637) rotate(0 122.5 42)"><path d="M21 0 C99.26 -1.64, 176.04 1.7, 224 0 M21 0 C92.84 -0.25, 165.1 0.24, 224 0 M224 0 C238.84 0.9, 246.4 5.44, 245 21 M224 0 C239.42 -2.3, 245.3 9.02, 245 21 M245 21 C245.65 34.11, 244.98 46.5, 245 63 M245 21 C245.55 33.62, 244.55 45.02, 245 63 M245 63 C244.75 75.09, 237.29 82.52, 224 84 M245 63 C246.43 79.05, 237.4 86.19, 224 84 M224 84 C175.46 82.82, 131.38 81.85, 21 84 M224 84 C175.95 83.7, 126.81 84.1, 21 84 M21 84 C7.49 85.99, 0.01 78.39, 0 63 M21 84 C4.94 85.4, -2.22 74.95, 0 63 M0 63 C-0.47 52.91, -0.91 43.46, 0 21 M0 63 C0.02 54.22, 0.09 45.48, 0 21 M0 21 C0.94 6.01, 8.96 0.21, 21 0 M0 21 C1.72 6.83, 5.5 0.32, 21 0" stroke="#1e1e1e" stroke-width="2" fill="none"></path></g><g transform="translate(1338.5228496500458 625.7494718112637) rotate(0 75.82499694824219 13.5)"><text x="75.82499694824219" y="20.08" font-family="Nunito, Segoe UI Emoji" font-size="20px" fill="#1e1e1e" text-anchor="middle" style="white-space: pre;" direction="ltr" dominant-baseline="alphabetic">HTTPS Frontend</text></g><g mask="url(#mask-6O5zytD6XlIq4xUYilIan)" stroke-linecap="round"><g transform="translate(1562.8098532856611 466.6019295110677) rotate(0 -119.64058606025492 -78.33404073140483)"><path d="M0.48 0.03 C-14.99 -21, -52.61 -100.92, -92.61 -126.88 C-132.61 -152.83, -215.1 -150.63, -239.5 -155.71 M-0.72 -1 C-16.32 -22.32, -53.24 -102.58, -93.18 -128.67 C-133.13 -154.76, -216.14 -152.9, -240.38 -157.55" stroke="#1e1e1e" stroke-width="2" fill="none"></path></g><g transform="translate(1562.8098532856611 466.6019295110677) rotate(0 -119.64058606025492 -78.33404073140483)"><path d="M-216.18 -163.82 C-223.93 -160.53, -230.72 -160.06, -240.38 -157.55 M-216.18 -163.82 C-225.35 -161.78, -234.25 -159.22, -240.38 -157.55" stroke="#1e1e1e" stroke-width="2" fill="none"></path></g><g transform="translate(1562.8098532856611 466.6019295110677) rotate(0 -119.64058606025492 -78.33404073140483)"><path d="M-217.82 -146.79 C-224.95 -148.98, -231.2 -153.97, -240.38 -157.55 M-217.82 -146.79 C-226.4 -151.22, -234.69 -155.12, -240.38 -157.55" stroke="#1e1e1e" stroke-width="2" fill="none"></path></g></g><mask id="mask-6O5zytD6XlIq4xUYilIan"><rect x="0" y="0" fill="#fff" width="1902.091025406171" height="723.2700109738773"></rect><rect x="1385.3453503997512" y="312.1023548533865" fill="#000" width="168.3000030517578" height="54" opacity="1"></rect></mask><g transform="translate(1385.3453503997512 312.1023548533866) rotate(0 57.5152058685926 75.73892556568498)"><text x="84.1500015258789" y="20.08" font-family="Nunito, Segoe UI Emoji" font-size="20px" fill="#1e1e1e" text-anchor="middle" style="white-space: pre;" direction="ltr" dominant-baseline="alphabetic">Redirect to HTTPS</text><text x="84.1500015258789" y="47.08" font-family="Nunito, Segoe UI Emoji" font-size="20px" fill="#1e1e1e" text-anchor="middle" style="white-space: pre;" direction="ltr" dominant-baseline="alphabetic">(443)</text></g><g stroke-linecap="round" transform="translate(960.5160310035245 517.0527981882954) rotate(0 122.5 42.664010624169975)"><path d="M21.33 0 C94.45 -0.55, 171.03 -0.23, 223.67 0 M21.33 0 C93.9 1.88, 167.24 0.58, 223.67 0 M223.67 0 C237.08 1.73, 244.92 6.52, 245 21.33 M223.67 0 C237.08 -1.21, 246.42 7.31, 245 21.33 M245 21.33 C246.44 32.76, 245.56 40.04, 245 64 M245 21.33 C245.03 34.23, 245.73 45.11, 245 64 M245 64 C244.31 77.63, 236.72 83.49, 223.67 85.33 M245 64 C244.57 78.94, 237.27 86.07, 223.67 85.33 M223.67 85.33 C180.08 83.9, 134.54 82.92, 21.33 85.33 M223.67 85.33 C171.03 85.22, 119.25 85.02, 21.33 85.33 M21.33 85.33 C6.32 85.93, -1.83 79.23, 0 64 M21.33 85.33 C8.05 84.39, 2.17 80.26, 0 64 M0 64 C-0.56 51.25, 1.63 37.52, 0 21.33 M0 64 C-0.48 55.21, -0.23 45.13, 0 21.33 M0 21.33 C1.47 6.16, 9.07 1.62, 21.33 0 M0 21.33 C-1.5 6.82, 5.39 -0.18, 21.33 0" stroke="#1e1e1e" stroke-width="2" fill="none"></path></g><g transform="translate(1044.3576981788174 546.2168088124654) rotate(0 38.65833282470703 13.5)"><text x="38.65833282470703" y="20.08" font-family="Nunito, Segoe UI Emoji" font-size="20px" fill="#1e1e1e" text-anchor="middle" style="white-space: pre;" direction="ltr" dominant-baseline="alphabetic">Backend</text></g><g stroke-linecap="round" transform="translate(125.00423691005699 237.09457552339939) rotate(0 138.5 35.5)"><path d="M17.75 0 C91.42 -1.39, 163.65 -0.64, 259.25 0 M17.75 0 C91.73 -1.89, 166.24 -1.76, 259.25 0 M259.25 0 C271.15 0.44, 275.35 4.21, 277 17.75 M259.25 0 C270.57 0.23, 279.16 6.98, 277 17.75 M277 17.75 C276.34 31.89, 276.21 44.75, 277 53.25 M277 17.75 C277.55 30.03, 276.88 42.77, 277 53.25 M277 53.25 C278.65 65.45, 270.58 69.27, 259.25 71 M277 53.25 C278.87 66.37, 269.35 71.71, 259.25 71 M259.25 71 C198.06 68.32, 135.2 68.23, 17.75 71 M259.25 71 C177.51 69.55, 95.3 70.09, 17.75 71 M17.75 71 C5.84 72.18, 0.77 64.39, 0 53.25 M17.75 71 C3.94 68.72, -0.93 63.75, 0 53.25 M0 53.25 C0.47 44.13, -0.87 34.54, 0 17.75 M0 53.25 C0.45 44.31, 0.55 36.81, 0 17.75 M0 17.75 C0.02 7.16, 7.65 -0.73, 17.75 0 M0 17.75 C-2.1 6.54, 4.11 -0.72, 17.75 0" stroke="#1e1e1e" stroke-width="2" fill="none"></path></g><g transform="translate(222.92923614711754 259.0945755233994) rotate(0 40.57500076293945 13.5)"><text x="40.57500076293945" y="20.08" font-family="Nunito, Segoe UI Emoji" font-size="20px" fill="#1e1e1e" text-anchor="middle" style="white-space: pre;" direction="ltr" dominant-baseline="alphabetic">Endpoint</text></g><g stroke-linecap="round" transform="translate(125.26373858589346 455.9084549264223) rotate(0 138.50000000000003 35.5)"><path d="M17.75 0 C89.47 -0.11, 161.9 1.75, 259.25 0 M17.75 0 C102.11 -0.57, 185.45 -0.51, 259.25 0 M259.25 0 C271.91 -0.89, 276.12 5.21, 277 17.75 M259.25 0 C271.4 -0.93, 277.88 4.72, 277 17.75 M277 17.75 C275.6 25.39, 278.66 34.77, 277 53.25 M277 17.75 C275.91 25.13, 276.28 33.46, 277 53.25 M277 53.25 C278.64 66.13, 271.62 72.02, 259.25 71 M277 53.25 C275.29 64.41, 269.55 68.84, 259.25 71 M259.25 71 C198.58 70.33, 140.47 73.21, 17.75 71 M259.25 71 C173.07 71.22, 85.08 71.08, 17.75 71 M17.75 71 C4.54 69.84, 1.66 64.26, 0 53.25 M17.75 71 C5.1 71.13, 0.16 66.67, 0 53.25 M0 53.25 C-0.89 47.21, -1.95 37.2, 0 17.75 M0 53.25 C0.83 41.11, -0.9 26.26, 0 17.75 M0 17.75 C0 7.27, 4.31 -1.48, 17.75 0 M0 17.75 C0.57 6.68, 7.52 -0.7, 17.75 0" stroke="#1e1e1e" stroke-width="2" fill="none"></path></g><g transform="translate(210.53040499824698 477.9084549264223) rotate(0 53.23333358764651 13.5)"><text x="53.233333587646484" y="20.08" font-family="Nunito, Segoe UI Emoji" font-size="20px" fill="#1e1e1e" text-anchor="middle" style="white-space: pre;" direction="ltr" dominant-baseline="alphabetic">DNS Server</text></g><g mask="url(#mask-uD_KJ4xDt5e5REO-CiP1P)" stroke-linecap="round"><g transform="translate(192.1841388400308 309.67572437636807) rotate(0 -11.410794519617241 72.88856353260545)"><path d="M0.61 0.98 C-2.93 12.52, -21.76 44.87, -22.42 69.05 C-23.08 93.23, -6.77 133.1, -3.33 146.06 M-0.52 0.45 C-4.08 11.7, -23.07 42.99, -23.15 67.51 C-23.24 92.02, -4.69 134.65, -1.05 147.53" stroke="#1e1e1e" stroke-width="2" fill="none"></path></g><g transform="translate(192.1841388400308 309.67572437636807) rotate(0 -11.410794519617241 72.88856353260545)"><path d="M-16.86 128.17 C-12.07 132.67, -8.66 133.97, -1.05 147.53 M-16.86 128.17 C-11.22 134.48, -6.13 141.55, -1.05 147.53" stroke="#1e1e1e" stroke-width="2" fill="none"></path></g><g transform="translate(192.1841388400308 309.67572437636807) rotate(0 -11.410794519617241 72.88856353260545)"><path d="M-0.72 122.53 C0.81 128.26, 0.95 130.69, -1.05 147.53 M-0.72 122.53 C-0.29 130.81, -0.42 139.7, -1.05 147.53" stroke="#1e1e1e" stroke-width="2" fill="none"></path></g></g><mask id="mask-uD_KJ4xDt5e5REO-CiP1P"><rect x="0" y="0" fill="#fff" width="315.0057278792653" height="555.452851441579"></rect><rect x="61.279213924331486" y="364.1149710552459" fill="#000" width="216.1666717529297" height="27" opacity="1"></rect></mask><g transform="translate(61.279213924331486 364.1149710552458) rotate(0 119.63462128744237 19.5510525391023)"><text x="108.08333587646484" y="20.08" font-family="Nunito, Segoe UI Emoji" font-size="20px" fill="#1e1e1e" text-anchor="middle" style="white-space: pre;" direction="ltr" dominant-baseline="alphabetic">DNS Request (53 / 853)</text></g><g stroke-linecap="round" transform="translate(125.26373858589346 614.4798834978508) rotate(0 138.50000000000003 35.5)"><path d="M17.75 0 C103.66 1.87, 192.5 0.93, 259.25 0 M17.75 0 C110.51 -1.16, 201.68 -1.15, 259.25 0 M259.25 0 C272.75 1.96, 276.52 5.62, 277 17.75 M259.25 0 C271.34 -0.87, 277.23 6.29, 277 17.75 M277 17.75 C276.24 28.54, 276.68 35.96, 277 53.25 M277 17.75 C277.37 31.88, 277.04 46.49, 277 53.25 M277 53.25 C276.99 66.61, 272.13 71.53, 259.25 71 M277 53.25 C279 64.28, 269.85 69.3, 259.25 71 M259.25 71 C189 72.06, 120.01 70.6, 17.75 71 M259.25 71 C200.95 70.91, 142.55 71.61, 17.75 71 M17.75 71 C7.35 70.15, 1.17 66.4, 0 53.25 M17.75 71 C4.27 73.05, -0.2 65.34, 0 53.25 M0 53.25 C-0.97 45.78, 1.44 37.74, 0 17.75 M0 53.25 C-0.41 40.85, 0.82 27.67, 0 17.75 M0 17.75 C-1.87 4.79, 4.94 -0.3, 17.75 0 M0 17.75 C1.3 4.32, 4.69 -1.9, 17.75 0" stroke="#1e1e1e" stroke-width="2" fill="none"></path></g><g transform="translate(198.93040270942862 636.4798834978508) rotate(0 64.83333587646487 13.5)"><text x="64.83333587646484" y="20.08" font-family="Nunito, Segoe UI Emoji" font-size="20px" fill="#1e1e1e" text-anchor="middle" style="white-space: pre;" direction="ltr" dominant-baseline="alphabetic">DNS Registrar</text></g><g stroke-linecap="round"><g transform="translate(328.3385961670858 526.7221926734485) rotate(0 1.3498178742112827 43.28666726601972)"><path d="M0.62 -0.9 C0.77 13.32, 1.77 71.04, 1.94 85.54" stroke="#1e1e1e" stroke-width="2.5" fill="none" stroke-dasharray="1.5 8"></path></g><g transform="translate(328.3385961670858 526.7221926734485) rotate(0 1.3498178742112827 43.28666726601972)"><path d="M-6.96 62.17 C-4.97 69.89, -1.76 78.39, 1.94 85.54" stroke="#1e1e1e" stroke-width="2.5" fill="none" stroke-dasharray="1.5 6"></path></g><g transform="translate(328.3385961670858 526.7221926734485) rotate(0 1.3498178742112827 43.28666726601972)"><path d="M10.14 61.92 C5.52 69.83, 2.12 78.42, 1.94 85.54" stroke="#1e1e1e" stroke-width="2.5" fill="none" stroke-dasharray="1.5 6"></path></g></g><mask></mask><g stroke-linecap="round"><g transform="translate(208.60488766813546 614.2267558932219) rotate(0 -0.7091558318144848 -43.532586681085434)"><path d="M0 1.09 C-0.1 -13.45, -0.05 -71.64, -0.48 -86.29" stroke="#1e1e1e" stroke-width="2.5" fill="none" stroke-dasharray="1.5 8"></path></g><g transform="translate(208.60488766813546 614.2267558932219) rotate(0 -0.7091558318144848 -43.532586681085434)"><path d="M8.36 -62.9 C7.24 -68.6, 3.98 -79.38, -0.48 -86.29" stroke="#1e1e1e" stroke-width="2.5" fill="none" stroke-dasharray="1.5 6"></path></g><g transform="translate(208.60488766813546 614.2267558932219) rotate(0 -0.7091558318144848 -43.532586681085434)"><path d="M-8.74 -62.69 C-4.55 -68.46, -2.5 -79.3, -0.48 -86.29" stroke="#1e1e1e" stroke-width="2.5" fill="none" stroke-dasharray="1.5 6"></path></g></g><mask></mask><g transform="translate(85.73531260726799 551.7101054671166) rotate(0 178.67500305175778 13.5)"><text x="0" y="20.08" font-family="Nunito, Segoe UI Emoji" font-size="20px" fill="#1e1e1e" text-anchor="start" style="white-space: pre;" direction="ltr" dominant-baseline="alphabetic">Update DNS Server Records as per TTL</text></g><g stroke-linecap="round" transform="translate(1036.8677669170133 712.7730055837983) rotate(0 122.5 45.5)"><path d="M22.75 0 C76.92 -2.18, 130.59 -1.01, 222.25 0 M22.75 0 C78.62 -0.36, 135.83 0.51, 222.25 0 M222.25 0 C236.26 -0.47, 244.35 9.38, 245 22.75 M222.25 0 C237.61 -1.49, 243.31 5.65, 245 22.75 M245 22.75 C246.34 38.85, 244.47 60.11, 245 68.25 M245 22.75 C245.62 40.57, 245.07 57.17, 245 68.25 M245 68.25 C246.94 84.87, 235.94 90.69, 222.25 91 M245 68.25 C246.61 84.91, 236.6 93.04, 222.25 91 M222.25 91 C163.21 91.84, 106.89 91.19, 22.75 91 M222.25 91 C147.51 92.56, 73.17 92.3, 22.75 91 M22.75 91 C7.64 91.02, -0.67 83.79, 0 68.25 M22.75 91 C8.72 90.68, -1.43 83.9, 0 68.25 M0 68.25 C-0.41 54.7, -1.22 43.01, 0 22.75 M0 68.25 C1.17 54.83, 0.35 40.63, 0 22.75 M0 22.75 C-1.85 8.7, 9.13 0.62, 22.75 0 M0 22.75 C0.74 9.23, 9.64 -2.02, 22.75 0" stroke="#1e1e1e" stroke-width="2" fill="none"></path></g><g transform="translate(1049.0010982158415 717.7730055837983) rotate(0 110.36666870117188 40.5)"><text x="110.36666870117188" y="20.08" font-family="Nunito, Segoe UI Emoji" font-size="20px" fill="#1e1e1e" text-anchor="middle" style="white-space: pre;" direction="ltr" dominant-baseline="alphabetic">ACL Evaluated &amp;</text><text x="110.36666870117188" y="47.08" font-family="Nunito, Segoe UI Emoji" font-size="20px" fill="#1e1e1e" text-anchor="middle" style="white-space: pre;" direction="ltr" dominant-baseline="alphabetic">Matched to Action</text><text x="110.36666870117188" y="74.08" font-family="Nunito, Segoe UI Emoji" font-size="20px" fill="#1e1e1e" text-anchor="middle" style="white-space: pre;" direction="ltr" dominant-baseline="alphabetic">SSL Certificate Attached</text></g><g mask="url(#mask-pZypQWkN9JaVDow9Rk-4B)" stroke-linecap="round"><g transform="translate(1420.6639994036605 682.823507982901) rotate(0 -68.92591944944604 39.51059187151924)"><path d="M-0.61 -0.11 C-6.27 9.15, -11.8 41.89, -34.58 55 C-57.35 68.12, -120.03 74.74, -137.27 78.6 M1.26 -1.22 C-3.98 7.73, -9.26 39.58, -32.43 53.06 C-55.59 66.55, -120.16 75.41, -137.74 79.69" stroke="#1e1e1e" stroke-width="2" fill="none"></path></g><g transform="translate(1420.6639994036605 682.823507982901) rotate(0 -68.92591944944604 39.51059187151924)"><path d="M-116.31 66.8 C-121.88 68.11, -126.42 74.05, -137.74 79.69 M-116.31 66.8 C-121.44 70.16, -128.53 72.88, -137.74 79.69" stroke="#1e1e1e" stroke-width="2" fill="none"></path></g><g transform="translate(1420.6639994036605 682.823507982901) rotate(0 -68.92591944944604 39.51059187151924)"><path d="M-113.04 83.59 C-119.33 80.71, -124.69 82.49, -137.74 79.69 M-113.04 83.59 C-119.01 82.48, -126.97 80.76, -137.74 79.69" stroke="#1e1e1e" stroke-width="2" fill="none"></path></g></g><mask id="mask-pZypQWkN9JaVDow9Rk-4B"><rect x="0" y="0" fill="#fff" width="1658.5158383025525" height="861.8446917259395"></rect><rect x="1327.5830337656128" y="723.98316671855" fill="#000" width="119.1500015258789" height="27" opacity="1"></rect></mask><g transform="translate(1327.5830337656125 723.98316671855) rotate(0 24.84517164596673 -1.9231143950378282)"><text x="59.57500076293945" y="20.08" font-family="Nunito, Segoe UI Emoji" font-size="20px" fill="#1e1e1e" text-anchor="middle" style="white-space: pre;" direction="ltr" dominant-baseline="alphabetic">HTTPS (443)</text></g><g mask="url(#mask-oFOVn9aqzmaTSGMnrJkXb)" stroke-linecap="round"><g transform="translate(1104.6765012628002 713.7975571073057) rotate(0 -19.899374364437108 -55.42908208560851)"><path d="M1.14 -0.78 C-3.12 -9.69, -18.49 -34.7, -25.12 -53.03 C-31.74 -71.36, -36.12 -101.14, -38.63 -110.76 M0.27 1.42 C-3.64 -7.9, -16.33 -36.53, -22.84 -55 C-29.35 -73.47, -35.9 -100.29, -38.79 -109.39" stroke="#1e1e1e" stroke-width="2" fill="none"></path></g><g transform="translate(1104.6765012628002 713.7975571073057) rotate(0 -19.899374364437108 -55.42908208560851)"><path d="M-24.14 -89.13 C-30.43 -97.17, -33.57 -100.66, -38.79 -109.39 M-24.14 -89.13 C-28.24 -96.27, -33.8 -101.64, -38.79 -109.39" stroke="#1e1e1e" stroke-width="2" fill="none"></path></g><g transform="translate(1104.6765012628002 713.7975571073057) rotate(0 -19.899374364437108 -55.42908208560851)"><path d="M-40.58 -84.45 C-41.37 -94.22, -38.99 -99.28, -38.79 -109.39 M-40.58 -84.45 C-39.6 -93.05, -40.08 -99.86, -38.79 -109.39" stroke="#1e1e1e" stroke-width="2" fill="none"></path></g></g><mask id="mask-oFOVn9aqzmaTSGMnrJkXb"><rect x="0" y="0" fill="#fff" width="1244.4752499916744" height="924.6557212785227"></rect><rect x="1020.810125399079" y="646.9834969516604" fill="#000" width="119.1500015258789" height="27" opacity="1"></rect></mask><g transform="translate(1020.8101253990787 646.9834969516604) rotate(0 65.0407471307575 12.147498838334627)"><text x="59.57500076293945" y="20.08" font-family="Nunito, Segoe UI Emoji" font-size="20px" fill="#1e1e1e" text-anchor="middle" style="white-space: pre;" direction="ltr" dominant-baseline="alphabetic">HTTPS (443)</text></g><g mask="url(#mask-GIcT5vEMenIQ3FvE3Xtrm)" stroke-linecap="round"><g transform="translate(1111.7890677321006 515.7085871253682) rotate(0 46.025094624796 -100.3163425291857)"><path d="M0.51 -0.28 C6.05 -18.54, 17.33 -75.26, 32.56 -108.59 C47.79 -141.92, 82.04 -184.83, 91.91 -200.29 M-0.68 -1.47 C5.28 -20.19, 19.4 -77.07, 34.69 -110.56 C49.98 -144.06, 81.54 -187.44, 91.07 -202.45" stroke="#1e1e1e" stroke-width="2" fill="none"></path></g><g transform="translate(1111.7890677321006 515.7085871253682) rotate(0 46.025094624796 -100.3163425291857)"><path d="M85.1 -178.17 C85.88 -185.91, 88.28 -190.17, 91.07 -202.45 M85.1 -178.17 C87.32 -187.05, 89.13 -194.14, 91.07 -202.45" stroke="#1e1e1e" stroke-width="2" fill="none"></path></g><g transform="translate(1111.7890677321006 515.7085871253682) rotate(0 46.025094624796 -100.3163425291857)"><path d="M70.89 -187.69 C75.19 -193.19, 81.02 -195.15, 91.07 -202.45 M70.89 -187.69 C77.77 -193.36, 84.25 -197.32, 91.07 -202.45" stroke="#1e1e1e" stroke-width="2" fill="none"></path></g></g><mask id="mask-GIcT5vEMenIQ3FvE3Xtrm"><rect x="0" y="0" fill="#fff" width="1303.8392569816926" height="816.3412721837396"></rect><rect x="1085.8831665677376" y="393.3314385187251" fill="#000" width="119.1500015258789" height="27" opacity="1"></rect></mask><g transform="translate(1085.8831665677376 393.33143851872524) rotate(0 71.51980866852966 21.01375958903634)"><text x="59.57500076293945" y="20.08" font-family="Nunito, Segoe UI Emoji" font-size="20px" fill="#1e1e1e" text-anchor="middle" style="white-space: pre;" direction="ltr" dominant-baseline="alphabetic">HTTPS (443)</text></g><g mask="url(#mask-ucCIv4ChRqwHcV6dhhTBq)" stroke-linecap="round"><g transform="translate(352.47232748120564 453.23160259049956) rotate(0 8.71071540946349 -72.44194973123572)"><path d="M0.24 0.76 C3.05 -12.25, 16.46 -53.15, 16.61 -77.57 C16.76 -101.99, 3.8 -134.54, 1.15 -145.77 M-1.1 0.11 C2.12 -12.79, 18.67 -52.19, 18.9 -76.36 C19.12 -100.54, 3.29 -133.66, 0.23 -144.91" stroke="#1e1e1e" stroke-width="2" fill="none"></path></g><g transform="translate(352.47232748120564 453.23160259049956) rotate(0 8.71071540946349 -72.44194973123572)"><path d="M16.18 -125.66 C12.94 -132.32, 6.21 -136.79, 0.23 -144.91 M16.18 -125.66 C11.96 -130.5, 10.01 -134.79, 0.23 -144.91" stroke="#1e1e1e" stroke-width="2" fill="none"></path></g><g transform="translate(352.47232748120564 453.23160259049956) rotate(0 8.71071540946349 -72.44194973123572)"><path d="M0.07 -119.91 C1.28 -128.2, -0.98 -134.26, 0.23 -144.91 M0.07 -119.91 C-0.46 -126.05, 1.23 -131.64, 0.23 -144.91" stroke="#1e1e1e" stroke-width="2" fill="none"></path></g></g><mask id="mask-ucCIv4ChRqwHcV6dhhTBq"><rect x="0" y="0" fill="#fff" width="469.8937583001326" height="698.115502052971"></rect><rect x="304.6437583001326" y="362.786949806906" fill="#000" width="130.5" height="27" opacity="1"></rect></mask><g transform="translate(304.6437583001326 362.78694980690597) rotate(0 56.72802807524681 17.940736497164778)"><text x="65.25" y="20.08" font-family="Nunito, Segoe UI Emoji" font-size="20px" fill="#1e1e1e" text-anchor="middle" style="white-space: pre;" direction="ltr" dominant-baseline="alphabetic">DNS Resolved</text></g><g mask="url(#mask-DJKmbIF4P1pFrHfviyrTq)" stroke-linecap="round"><g transform="translate(1080.7283334699123 265.60643653512375) rotate(0 -169.6494810043904 -68.04226209226299)"><path d="M-1.09 -0.35 C-27.01 -22.99, -97.98 -128.51, -154.34 -135.39 C-210.7 -142.27, -308.33 -57.18, -339.25 -41.64 M0.54 -1.58 C-25.12 -24.6, -95.39 -130.7, -152.15 -137.15 C-208.9 -143.6, -308.69 -56.26, -339.98 -40.26" stroke="#1e1e1e" stroke-width="2" fill="none"></path></g><g transform="translate(1080.7283334699123 265.60643653512375) rotate(0 -169.6494810043904 -68.04226209226299)"><path d="M-325.21 -60.43 C-331.63 -54.16, -335.79 -44.37, -339.98 -40.26 M-325.21 -60.43 C-330.34 -53.61, -334.4 -47.57, -339.98 -40.26" stroke="#1e1e1e" stroke-width="2" fill="none"></path></g><g transform="translate(1080.7283334699123 265.60643653512375) rotate(0 -169.6494810043904 -68.04226209226299)"><path d="M-315.7 -46.22 C-325.97 -45.71, -333.92 -41.59, -339.98 -40.26 M-315.7 -46.22 C-323.7 -43.81, -330.7 -42.16, -339.98 -40.26" stroke="#1e1e1e" stroke-width="2" fill="none"></path></g></g><mask id="mask-DJKmbIF4P1pFrHfviyrTq"><rect x="0" y="0" fill="#fff" width="1520.027295478693" height="501.69096071964975"></rect><rect x="867.8020207986001" y="116.0219123505978" fill="#000" width="119.1500015258789" height="27" opacity="1"></rect></mask><g transform="translate(867.8020207986003 116.02191235059777) rotate(0 43.205444230252226 80.66231775566719)"><text x="59.57500076293945" y="20.08" font-family="Nunito, Segoe UI Emoji" font-size="20px" fill="#1e1e1e" text-anchor="middle" style="white-space: pre;" direction="ltr" dominant-baseline="alphabetic">HTTPS (443)</text></g><g mask="url(#mask-7Ae9_0nZVXepcaMLFzOV4)" stroke-linecap="round"><g transform="translate(749.005604954502 223.63103904580515) rotate(0 -223.18771701969263 -36.84301420583175)"><path d="M-0.76 0.78 C-38.15 -13.58, -149.41 -88.31, -223.52 -86.24 C-297.62 -84.17, -408.06 -3.3, -445.38 13.18 M1.04 0.14 C-36.06 -13.99, -146.94 -86.45, -221.39 -84.63 C-295.83 -82.8, -407.89 -5.3, -445.63 11.08" stroke="#1e1e1e" stroke-width="2" fill="none"></path></g><g transform="translate(749.005604954502 223.63103904580515) rotate(0 -223.18771701969263 -36.84301420583175)"><path d="M-429.02 -7.6 C-433.83 -2.72, -440.96 7.64, -445.63 11.08 M-429.02 -7.6 C-434.99 -1.11, -440.98 5.83, -445.63 11.08" stroke="#1e1e1e" stroke-width="2" fill="none"></path></g><g transform="translate(749.005604954502 223.63103904580515) rotate(0 -223.18771701969263 -36.84301420583175)"><path d="M-420.89 7.44 C-428.66 6.77, -438.77 11.61, -445.63 11.08 M-420.89 7.44 C-429.48 8.82, -438.24 10.65, -445.63 11.08" stroke="#1e1e1e" stroke-width="2" fill="none"></path></g></g><mask id="mask-7Ae9_0nZVXepcaMLFzOV4"><rect x="0" y="0" fill="#fff" width="1295.3810389938872" height="422.72083851433035"></rect><rect x="467.0252648413102" y="123.74312510571076" fill="#000" width="119.1500015258789" height="27" opacity="1"></rect></mask><g transform="translate(467.02526484131 123.74312510571079) rotate(0 59.68768556931843 63.33556008438201)"><text x="59.57500076293945" y="20.08" font-family="Nunito, Segoe UI Emoji" font-size="20px" fill="#1e1e1e" text-anchor="middle" style="white-space: pre;" direction="ltr" dominant-baseline="alphabetic">HTTPS (443)</text></g><g stroke-linecap="round" transform="translate(10 332.4622486116868) rotate(0 254.31606905710487 223.77158034528549)"><path d="M32 0 C197.44 -2.02, 361.21 -2.24, 476.63 0 M32 0 C181.74 1.56, 330.68 0.82, 476.63 0 M476.63 0 C496.18 1.14, 507.47 9.92, 508.63 32 M476.63 0 C497.8 -1.57, 506.37 9.7, 508.63 32 M508.63 32 C510.07 130.21, 510.72 227.77, 508.63 415.54 M508.63 32 C506.39 167.71, 506.17 303.26, 508.63 415.54 M508.63 415.54 C507.08 437.08, 496.52 449.11, 476.63 447.54 M508.63 415.54 C509.37 438.16, 500.12 447.8, 476.63 447.54 M476.63 447.54 C362.1 447.39, 248.71 446.53, 32 447.54 M476.63 447.54 C359.52 448.79, 241.45 449.54, 32 447.54 M32 447.54 C10.3 446.11, -1.03 435.68, 0 415.54 M32 447.54 C10.95 449.55, 0.73 436.48, 0 415.54 M0 415.54 C-0.66 268.72, -0.22 122.39, 0 32 M0 415.54 C0.84 268.63, 1.34 120.67, 0 32 M0 32 C-1.82 8.89, 11.37 1.41, 32 0 M0 32 C0.84 12.03, 11.76 0.23, 32 0" stroke="#1e1e1e" stroke-width="2" fill="none"></path></g><g transform="translate(158.73837981407678 709.4444531269592) rotate(0 97.44166564941406 24.30000000000001)"><text x="0" y="36.144000000000005" font-family="Nunito, Segoe UI Emoji" font-size="36px" fill="#e03131" text-anchor="start" style="white-space: pre;" direction="ltr" dominant-baseline="alphabetic">Public DNS </text></g><g transform="translate(1563.7848605577688 730.868623113679) rotate(0 73.19999694824219 24.30000000000001)"><text x="0" y="36.144000000000005" font-family="Nunito, Segoe UI Emoji" font-size="36px" fill="#2f9e44" text-anchor="start" style="white-space: pre;" direction="ltr" dominant-baseline="alphabetic">HAProxy</text></g><g stroke-linecap="round" transform="translate(544.9069020396275 10) rotate(0 408.2377581768131 172.64276228419652)"><path d="M32 0 C330.82 0.9, 627.93 1.37, 784.48 0 M32 0 C235.62 -2.62, 439.23 -2.12, 784.48 0 M784.48 0 C806.99 -1.6, 816.34 11.72, 816.48 32 M784.48 0 C805.29 -1.99, 818.21 8.39, 816.48 32 M816.48 32 C813.92 96.55, 815.92 159.43, 816.48 313.29 M816.48 32 C818.82 116.08, 818.67 201.48, 816.48 313.29 M816.48 313.29 C816.54 333.84, 804.27 343.64, 784.48 345.29 M816.48 313.29 C818.28 333.61, 804 343.39, 784.48 345.29 M784.48 345.29 C488.85 343.53, 193.75 344.26, 32 345.29 M784.48 345.29 C535.39 348, 285.75 347.85, 32 345.29 M32 345.29 C11.47 347.24, 1.14 334.35, 0 313.29 M32 345.29 C8.66 344.62, -1.91 334.92, 0 313.29 M0 313.29 C1.53 206.27, 2.21 96.56, 0 32 M0 313.29 C-0.1 225.59, 0.2 138.64, 0 32 M0 32 C-0.73 8.94, 11.14 -1.99, 32 0 M0 32 C0.73 11.02, 9.04 -1.83, 32 0" stroke="#1e1e1e" stroke-width="2" fill="none"></path></g><g transform="translate(632.5563044300656 63.120849933598834) rotate(0 65.92500305175781 24.299999999999997)"><text x="0" y="36.144000000000005" font-family="Nunito, Segoe UI Emoji" font-size="36px" fill="#f08c00" text-anchor="start" style="white-space: pre;" direction="ltr" dominant-baseline="alphabetic">pfSense</text></g><g stroke-linecap="round" transform="translate(899.774236387782 376.2869498069056) rotate(0 443.559096945551 231.07569721115533)"><path d="M32 0 C221.07 -0.9, 409.07 0.16, 855.12 0 M32 0 C359.79 0.61, 686.9 0.76, 855.12 0 M855.12 0 C875.78 -0.07, 885.42 9.9, 887.12 32 M855.12 0 C874.83 0.2, 888.75 9.3, 887.12 32 M887.12 32 C889.73 115.98, 888.68 199.57, 887.12 430.15 M887.12 32 C888.17 152.83, 888.84 273.63, 887.12 430.15 M887.12 430.15 C887.7 449.69, 875.08 460.63, 855.12 462.15 M887.12 430.15 C887.1 452.76, 877.99 464.01, 855.12 462.15 M855.12 462.15 C678.72 465.11, 503.46 464.63, 32 462.15 M855.12 462.15 C632.13 458.94, 409.81 459.05, 32 462.15 M32 462.15 C12.52 462.26, 1.6 450.98, 0 430.15 M32 462.15 C11.5 463.16, 1.1 449.88, 0 430.15 M0 430.15 C0.5 278.4, -1.09 127.05, 0 32 M0 430.15 C-0.73 301.47, -0.78 171.96, 0 32 M0 32 C0.1 10.22, 9.64 -0.92, 32 0 M0 32 C-1.68 9.44, 11.99 2.04, 32 0" stroke="#1e1e1e" stroke-width="2" fill="none"></path></g><g transform="translate(887.4903968617942 297.1478669180655) rotate(0 60.65833282470703 18.900000000000006)"><text x="0" y="28.112000000000002" font-family="Nunito, Segoe UI Emoji" font-size="28px" fill="#1e1e1e" text-anchor="start" style="white-space: pre;" direction="ltr" dominant-baseline="alphabetic">NAT Rule</text></g><g stroke-linecap="round" transform="translate(867.7780534111158 221.9129051295469) rotate(0 79.73266350107076 58.81619730463257)"><path d="M29.41 0 C67.98 -2.55, 111.51 -2.05, 130.06 0 M29.41 0 C51.29 0.09, 72.95 -0.27, 130.06 0 M130.06 0 C151.36 -1.97, 159.73 11.08, 159.47 29.41 M130.06 0 C151.08 0.98, 158.21 10.62, 159.47 29.41 M159.47 29.41 C158.88 51.53, 158.35 71.91, 159.47 88.22 M159.47 29.41 C160.78 53.12, 160.05 75.18, 159.47 88.22 M159.47 88.22 C160.86 108.89, 148.54 117.66, 130.06 117.63 M159.47 88.22 C157.24 106.83, 151.8 116.91, 130.06 117.63 M130.06 117.63 C94.17 118.67, 54.71 116.2, 29.41 117.63 M130.06 117.63 C102.62 118.67, 73.54 118.17, 29.41 117.63 M29.41 117.63 C7.96 119.05, -0.94 106.58, 0 88.22 M29.41 117.63 C10.1 119.14, 0.74 106.32, 0 88.22 M0 88.22 C-0.03 72.98, 0.18 57.07, 0 29.41 M0 88.22 C-0.16 74.85, -1.1 63.37, 0 29.41 M0 29.41 C0.51 11.47, 10.16 -0.12, 29.41 0 M0 29.41 C-2.11 8.46, 7.79 -1.95, 29.41 0" stroke="#1e1e1e" stroke-width="2" fill="none"></path></g></svg>