<svg version="1.1" xmlns="http://www.w3.org/2000/svg" viewBox="0 0 1796.8924302788841 842.0451527224434" width="1796.8924302788841" height="842.0451527224434" filter="invert(93%) hue-rotate(180deg)"><!-- svg-source:excalidraw --><metadata></metadata><defs><style class="style-fonts">
      @font-face { font-family: Nunito; src: url(https://esm.sh/@excalidraw/excalidraw/dist/prod/@fs/opt/excalidraw/packages/excalidraw/fonts/Nunito/Nunito-Regular-XRXI3I6Li01BKofiOc5wtlZ2di8HDIkhdTQ3j6zbXWjgeg.woff2); }</style></defs><rect x="0" y="0" width="1796.8924302788841" height="842.0451527224434" fill="#ffffff"></rect><g stroke-linecap="round" transform="translate(654.3159740883284 224.20138401662643) rotate(0 122.50000000000006 42)"><path d="M21 0 C94.34 1.23, 166.01 2.09, 224 0 M21 0 C93.01 -1.27, 164.59 -0.23, 224 0 M224 0 C237.14 -0.74, 244.1 7.51, 245 21 M224 0 C238.4 1.63, 243.32 8.6, 245 21 M245 21 C244.68 37.69, 243.77 52.84, 245 63 M245 21 C244.18 34.79, 244.99 47.82, 245 63 M245 63 C243.32 75.43, 238.89 84.11, 224 84 M245 63 C242.82 79.23, 237.97 86.13, 224 84 M224 84 C152.77 83.58, 83.71 82.51, 21 84 M224 84 C160.01 84.51, 95.42 84.72, 21 84 M21 84 C8.5 85.08, 0.96 78.36, 0 63 M21 84 C7.23 84.15, -1.9 75.94, 0 63 M0 63 C1.12 51.21, -0.93 40.71, 0 21 M0 63 C1.11 47.43, 0.58 33.91, 0 21 M0 21 C-0.18 5.37, 6.37 0.38, 21 0 M0 21 C2.16 5.62, 5.09 0.37, 21 0" stroke="#1e1e1e" stroke-width="2" fill="none"></path></g><g transform="translate(711.3743084389143 252.70138401662643) rotate(0 65.44166564941412 13.5)"><text x="65.44166564941406" y="20.08" font-family="Nunito, Segoe UI Emoji" font-size="20px" fill="#1e1e1e" text-anchor="middle" style="white-space: pre;" direction="ltr" dominant-baseline="alphabetic">WAN Address</text></g><g mask="url(#mask-dh8H0w-j5ZCXxlo4d93eG)" stroke-linecap="round"><g transform="translate(404.2258091537268 246.061211640762) rotate(0 123.40590234722742 1.3627843910043396)"><path d="M-1.17 -0.58 C40 -0.1, 205.56 2.8, 246.79 3.24 M0.41 1.73 C41.45 1.82, 205.04 1.16, 245.83 1.39" stroke="#1e1e1e" stroke-width="2" fill="none"></path></g><g transform="translate(404.2258091537268 246.061211640762) rotate(0 123.40590234722742 1.3627843910043396)"><path d="M222.34 9.93 C227.89 7.75, 236.25 4.42, 245.83 1.39 M222.34 9.93 C227.86 7.85, 234.9 5.58, 245.83 1.39" stroke="#1e1e1e" stroke-width="2" fill="none"></path></g><g transform="translate(404.2258091537268 246.061211640762) rotate(0 123.40590234722742 1.3627843910043396)"><path d="M222.34 -7.17 C227.94 -4.59, 236.3 -3.16, 245.83 1.39 M222.34 -7.17 C227.75 -5.03, 234.79 -3.08, 245.83 1.39" stroke="#1e1e1e" stroke-width="2" fill="none"></path></g></g><mask id="mask-dh8H0w-j5ZCXxlo4d93eG"><rect x="0" y="0" fill="#fff" width="751.0376138481816" height="348.7867804227707"></rect><rect x="468.0567107380148" y="233.92399603176636" fill="#000" width="119.1500015258789" height="27" opacity="1"></rect></mask><g transform="translate(468.05671073801466 233.92399603176636) rotate(0 58.97724989801645 13.467999301850824)"><text x="59.57500076293945" y="20.08" font-family="Nunito, Segoe UI Emoji" font-size="20px" fill="#1e1e1e" text-anchor="middle" style="white-space: pre;" direction="ltr" dominant-baseline="alphabetic">HTTPS (443)</text></g><g mask="url(#mask-CGuPtvTwnLTRjs-jI7SRj)" stroke-linecap="round"><g transform="translate(406.6349124981242 283.44188324023935) rotate(0 123.36833400122458 -1.1365995686673784)"><path d="M-0.37 -0.4 C40.61 -0.9, 205.54 -2.86, 246.7 -2.97 M1.63 -1.66 C42.39 -2.02, 205.05 -1.61, 245.73 -1.8" stroke="#1e1e1e" stroke-width="2" fill="none"></path></g><g transform="translate(406.6349124981242 283.44188324023935) rotate(0 123.36833400122458 -1.1365995686673784)"><path d="M222.24 6.77 C230.16 3.64, 238.26 0.28, 245.73 -1.8 M222.24 6.77 C232.41 3.38, 241.37 -0.62, 245.73 -1.8" stroke="#1e1e1e" stroke-width="2" fill="none"></path></g><g transform="translate(406.6349124981242 283.44188324023935) rotate(0 123.36833400122458 -1.1365995686673784)"><path d="M222.23 -10.33 C230.15 -7.2, 238.26 -4.32, 245.73 -1.8 M222.23 -10.33 C232.4 -6.91, 241.36 -4.1, 245.73 -1.8" stroke="#1e1e1e" stroke-width="2" fill="none"></path></g></g><mask id="mask-CGuPtvTwnLTRjs-jI7SRj"><rect x="0" y="0" fill="#fff" width="753.3715805005734" height="385.7150823775741"></rect><rect x="482.61158008699545" y="268.805283671572" fill="#000" width="94.78333282470703" height="27" opacity="1"></rect></mask><g transform="translate(482.6115800869952 268.80528367157194) rotate(0 47.18576740175479 12.948859392106499)"><text x="47.391666412353516" y="20.08" font-family="Nunito, Segoe UI Emoji" font-size="20px" fill="#1e1e1e" text-anchor="middle" style="white-space: pre;" direction="ltr" dominant-baseline="alphabetic">HTTP (80)</text></g><g mask="url(#mask-hDt5wmiES1iQaB3F3jpQq)" stroke-linecap="round"><g transform="translate(900.2603676760833 283.41539067999764) rotate(0 90.19024470467866 -0.3277519678772194)"><path d="M-0.31 1.05 C29.86 0.99, 150.65 -0.63, 180.66 -0.91 M1.73 0.55 C31.8 0.73, 150.37 0.47, 179.85 0.49" stroke="#1e1e1e" stroke-width="2" fill="none"></path></g><g transform="translate(900.2603676760833 283.41539067999764) rotate(0 90.19024470467866 -0.3277519678772194)"><path d="M156.37 9.06 C164.44 7.29, 168.56 3.46, 179.85 0.49 M156.37 9.06 C162.91 6.27, 170.5 4.38, 179.85 0.49" stroke="#1e1e1e" stroke-width="2" fill="none"></path></g><g transform="translate(900.2603676760833 283.41539067999764) rotate(0 90.19024470467866 -0.3277519678772194)"><path d="M156.35 -8.04 C164.34 -5.23, 168.47 -4.48, 179.85 0.49 M156.35 -8.04 C162.85 -5.69, 170.45 -2.45, 179.85 0.49" stroke="#1e1e1e" stroke-width="2" fill="none"></path></g></g><mask id="mask-hDt5wmiES1iQaB3F3jpQq"><rect x="0" y="0" fill="#fff" width="1180.6408570854405" height="384.0708946157521"></rect><rect x="943.0589459684084" y="269.58763871212034" fill="#000" width="94.78333282470703" height="27" opacity="1"></rect></mask><g transform="translate(943.0589459684084 269.58763871212045) rotate(0 47.374521432817005 13.894692791998438)"><text x="47.391666412353516" y="20.08" font-family="Nunito, Segoe UI Emoji" font-size="20px" fill="#1e1e1e" text-anchor="middle" style="white-space: pre;" direction="ltr" dominant-baseline="alphabetic">HTTP (80)</text></g><g mask="url(#mask-NLOg6VfxPe5Q9izQCPDTy)" stroke-linecap="round"><g transform="translate(900.8207388001832 247.16387173889495) rotate(0 89.16684135246862 0.03273785461081502)"><path d="M-0.58 0.23 C29.32 -0.03, 149.37 -1.09, 179.06 -1.04 M1.31 -0.7 C31.16 -0.9, 148.7 0.07, 178.49 -0.09" stroke="#1e1e1e" stroke-width="2" fill="none"></path></g><g transform="translate(900.8207388001832 247.16387173889495) rotate(0 89.16684135246862 0.03273785461081502)"><path d="M154.98 8.41 C161.67 7.45, 165.78 2.66, 178.49 -0.09 M154.98 8.41 C163.68 5.7, 171.54 2.11, 178.49 -0.09" stroke="#1e1e1e" stroke-width="2" fill="none"></path></g><g transform="translate(900.8207388001832 247.16387173889495) rotate(0 89.16684135246862 0.03273785461081502)"><path d="M155.02 -8.69 C161.77 -5.04, 165.88 -5.22, 178.49 -0.09 M155.02 -8.69 C163.7 -5.65, 171.54 -3.49, 178.49 -0.09" stroke="#1e1e1e" stroke-width="2" fill="none"></path></g></g><mask id="mask-NLOg6VfxPe5Q9izQCPDTy"><rect x="0" y="0" fill="#fff" width="1179.1544215051204" height="347.2293474481166"></rect><rect x="930.4125793897126" y="233.6966095935058" fill="#000" width="119.1500015258789" height="27" opacity="1"></rect></mask><g transform="translate(930.4125793897124 233.69660959350585) rotate(0 59.64775584787117 13.059995123994128)"><text x="59.57500076293945" y="20.08" font-family="Nunito, Segoe UI Emoji" font-size="20px" fill="#1e1e1e" text-anchor="middle" style="white-space: pre;" direction="ltr" dominant-baseline="alphabetic">HTTPS (443)</text></g><g stroke-linecap="round" transform="translate(1087.7524820248364 224.20138401662643) rotate(0 122.5 42)"><path d="M21 0 C99.95 -0.04, 179.84 -0.04, 224 0 M21 0 C65.65 1.03, 111.12 0.97, 224 0 M224 0 C239.25 -0.73, 243.12 6.94, 245 21 M224 0 C236.76 -0.93, 244.98 5.1, 245 21 M245 21 C244.84 29.97, 245.98 41.19, 245 63 M245 21 C244.47 37.12, 244.99 51.29, 245 63 M245 63 C244.34 78.72, 238.6 85.03, 224 84 M245 63 C246.46 76.03, 239.36 82.91, 224 84 M224 84 C148.12 84.59, 72.64 82.12, 21 84 M224 84 C156.38 85.42, 87.7 84.49, 21 84 M21 84 C7.85 84.04, 0.34 75.89, 0 63 M21 84 C6.48 84.4, -1.09 76.68, 0 63 M0 63 C-1.7 49.41, -1.38 35.53, 0 21 M0 63 C0.76 49.04, -0.64 33.48, 0 21 M0 21 C-1.82 7.59, 6.68 -1.94, 21 0 M0 21 C-0.25 6.68, 8.25 -0.01, 21 0" stroke="#1e1e1e" stroke-width="2" fill="none"></path></g><g transform="translate(1167.5608163754223 252.70138401662643) rotate(0 42.69166564941406 13.5)"><text x="42.69166564941406" y="20.08" font-family="Nunito, Segoe UI Emoji" font-size="20px" fill="#1e1e1e" text-anchor="middle" style="white-space: pre;" direction="ltr" dominant-baseline="alphabetic">Virtual IP</text></g><g mask="url(#mask-qsBWYYkjwrzAlKmUmoYg3)" stroke-linecap="round"><g transform="translate(1298.8003409105659 308.874645324943) rotate(0 25.002472238850714 140.46822879543222)"><path d="M-0.59 -0.47 C0.89 25.25, 1.26 107.29, 9.84 154.18 C18.41 201.07, 44.1 259.88, 50.86 280.87 M1.3 -1.76 C2.52 24.07, 0.59 107.81, 8.8 155.13 C17.01 202.45, 43.54 261.21, 50.55 282.15" stroke="#1e1e1e" stroke-width="2" fill="none"></path></g><g transform="translate(1298.8003409105659 308.874645324943) rotate(0 25.002472238850714 140.46822879543222)"><path d="M34.2 263.24 C39.63 270.24, 44.75 279.15, 50.55 282.15 M34.2 263.24 C38.39 268.59, 43.44 273.5, 50.55 282.15" stroke="#1e1e1e" stroke-width="2" fill="none"></path></g><g transform="translate(1298.8003409105659 308.874645324943) rotate(0 25.002472238850714 140.46822879543222)"><path d="M50.18 257.15 C49.52 266.39, 48.56 277.62, 50.55 282.15 M50.18 257.15 C49.69 264.19, 50.04 270.88, 50.55 282.15" stroke="#1e1e1e" stroke-width="2" fill="none"></path></g></g><mask id="mask-qsBWYYkjwrzAlKmUmoYg3"><rect x="0" y="0" fill="#fff" width="1448.8052853882673" height="689.8111029158074"></rect><rect x="1249.2297801135537" y="450.68326693227124" fill="#000" width="119.1500015258789" height="27" opacity="1"></rect></mask><g transform="translate(1249.2297801135537 450.6832669322712) rotate(0 74.7067226681296 -1.6127866663706243)"><text x="59.57500076293945" y="20.08" font-family="Nunito, Segoe UI Emoji" font-size="20px" fill="#1e1e1e" text-anchor="middle" style="white-space: pre;" direction="ltr" dominant-baseline="alphabetic">HTTPS (443)</text></g><g mask="url(#mask-Je9RU54CKIot1VhPegmI1)" stroke-linecap="round"><g transform="translate(1333.292731624464 236.69348729515428) rotate(0 143.07565850454955 106.7701346857271)"><path d="M-1.18 -0.34 C36.95 6.62, 180.83 6.63, 228.89 42.31 C276.95 78, 277.58 185.21, 287.17 213.75 M0.41 -1.57 C38.45 5.01, 180.74 4.46, 228.5 40.58 C276.26 76.71, 277.22 186.17, 286.95 215.18" stroke="#1e1e1e" stroke-width="2" fill="none"></path></g><g transform="translate(1333.292731624464 236.69348729515428) rotate(0 143.07565850454955 106.7701346857271)"><path d="M274.36 193.58 C277.82 202.23, 283.58 208.94, 286.95 215.18 M274.36 193.58 C277.82 200.95, 283.24 207.99, 286.95 215.18" stroke="#1e1e1e" stroke-width="2" fill="none"></path></g><g transform="translate(1333.292731624464 236.69348729515428) rotate(0 143.07565850454955 106.7701346857271)"><path d="M291.19 190.55 C289.39 199.98, 289.88 207.63, 286.95 215.18 M291.19 190.55 C289.31 198.88, 289.38 206.89, 286.95 215.18" stroke="#1e1e1e" stroke-width="2" fill="none"></path></g></g><mask id="mask-Je9RU54CKIot1VhPegmI1"><rect x="0" y="0" fill="#fff" width="1719.4440486335632" height="550.2337566666085"></rect><rect x="1513.7371516487358" y="264.76029216467487" fill="#000" width="94.78333282470703" height="27" opacity="1"></rect></mask><g transform="translate(1513.7371516487358 264.76029216467487) rotate(0 -37.44565376230253 78.73947280360127)"><text x="47.391666412353516" y="20.08" font-family="Nunito, Segoe UI Emoji" font-size="20px" fill="#1e1e1e" text-anchor="middle" style="white-space: pre;" direction="ltr" dominant-baseline="alphabetic">HTTP (80)</text></g><g stroke-linecap="round" transform="translate(1461.8345663858045 460.53755520488954) rotate(0 122.5 42)"><path d="M21 0 C78 -0.44, 132.41 -1.79, 224 0 M21 0 C73.34 -1.58, 126.86 -0.96, 224 0 M224 0 C239.93 1.89, 245.01 7.12, 245 21 M224 0 C239.2 -2.28, 244.21 8.56, 245 21 M245 21 C246.74 32.25, 243.18 41.14, 245 63 M245 21 C245.08 31, 244.13 41.42, 245 63 M245 63 C244.58 75.83, 237.7 85.33, 224 84 M245 63 C245.03 77.2, 238.93 85.16, 224 84 M224 84 C152.9 81.28, 82.14 83, 21 84 M224 84 C155.98 85.32, 89.07 84.91, 21 84 M21 84 C8.58 82.77, 0.11 77.24, 0 63 M21 84 C8.44 83.46, -1.91 78.16, 0 63 M0 63 C0.81 49.86, 1.63 34.01, 0 21 M0 63 C0.5 46.24, 0.49 31.11, 0 21 M0 21 C-1.06 8, 7.78 -1.1, 21 0 M0 21 C-0.95 7.58, 6.62 -0.25, 21 0" stroke="#1e1e1e" stroke-width="2" fill="none"></path></g><g transform="translate(1514.6928961587537 489.03755520488954) rotate(0 69.64167022705078 13.5)"><text x="69.64167022705078" y="20.08" font-family="Nunito, Segoe UI Emoji" font-size="20px" fill="#1e1e1e" text-anchor="middle" style="white-space: pre;" direction="ltr" dominant-baseline="alphabetic">HTTP Frontend</text></g><g stroke-linecap="round" transform="translate(1291.847846598288 590.8562803044906) rotate(0 122.5 42)"><path d="M21 0 C99.26 -1.64, 176.04 1.7, 224 0 M21 0 C92.84 -0.25, 165.1 0.24, 224 0 M224 0 C238.84 0.9, 246.4 5.44, 245 21 M224 0 C239.42 -2.3, 245.3 9.02, 245 21 M245 21 C245.65 34.11, 244.98 46.5, 245 63 M245 21 C245.55 33.62, 244.55 45.02, 245 63 M245 63 C244.75 75.09, 237.29 82.52, 224 84 M245 63 C246.43 79.05, 237.4 86.19, 224 84 M224 84 C175.46 82.82, 131.38 81.85, 21 84 M224 84 C175.95 83.7, 126.81 84.1, 21 84 M21 84 C7.49 85.99, 0.01 78.39, 0 63 M21 84 C4.94 85.4, -2.22 74.95, 0 63 M0 63 C-0.47 52.91, -0.91 43.46, 0 21 M0 63 C0.02 54.22, 0.09 45.48, 0 21 M0 21 C0.94 6.01, 8.96 0.21, 21 0 M0 21 C1.72 6.83, 5.5 0.32, 21 0" stroke="#1e1e1e" stroke-width="2" fill="none"></path></g><g transform="translate(1338.5228496500458 619.3562803044906) rotate(0 75.82499694824219 13.5)"><text x="75.82499694824219" y="20.08" font-family="Nunito, Segoe UI Emoji" font-size="20px" fill="#1e1e1e" text-anchor="middle" style="white-space: pre;" direction="ltr" dominant-baseline="alphabetic">HTTPS Frontend</text></g><g mask="url(#mask-6O5zytD6XlIq4xUYilIan)" stroke-linecap="round"><g transform="translate(1562.4343614980644 459.6956875940339) rotate(0 -125.9202360873528 -79.82743544550283)"><path d="M0.48 0.03 C-14.93 -20.91, -50.14 -99.91, -92.23 -126.36 C-134.32 -152.82, -225.5 -153.04, -252.06 -158.7 M-0.72 -1 C-16.25 -22.23, -50.77 -101.57, -92.81 -128.16 C-134.85 -154.75, -226.55 -155.3, -252.94 -160.54" stroke="#1e1e1e" stroke-width="2" fill="none"></path></g><g transform="translate(1562.4343614980644 459.6956875940339) rotate(0 -125.9202360873528 -79.82743544550283)"><path d="M-228.64 -166.43 C-236.43 -163.26, -243.24 -162.91, -252.94 -160.54 M-228.64 -166.43 C-237.85 -164.54, -246.79 -162.12, -252.94 -160.54" stroke="#1e1e1e" stroke-width="2" fill="none"></path></g><g transform="translate(1562.4343614980644 459.6956875940339) rotate(0 -125.9202360873528 -79.82743544550283)"><path d="M-230.54 -149.43 C-237.62 -151.73, -243.82 -156.84, -252.94 -160.54 M-230.54 -149.43 C-239.07 -153.99, -247.29 -158.02, -252.94 -160.54" stroke="#1e1e1e" stroke-width="2" fill="none"></path></g></g><mask id="mask-6O5zytD6XlIq4xUYilIan"><rect x="0" y="0" fill="#fff" width="1914.27483367277" height="719.3505584850395"></rect><rect x="1385.3453503997514" y="305.70916334661365" fill="#000" width="168.3000030517578" height="54" opacity="1"></rect></mask><g transform="translate(1385.3453503997512 305.7091633466136) rotate(0 50.86006405389776 73.73248044132617)"><text x="84.1500015258789" y="20.08" font-family="Nunito, Segoe UI Emoji" font-size="20px" fill="#1e1e1e" text-anchor="middle" style="white-space: pre;" direction="ltr" dominant-baseline="alphabetic">Redirect to HTTPS</text><text x="84.1500015258789" y="47.08" font-family="Nunito, Segoe UI Emoji" font-size="20px" fill="#1e1e1e" text-anchor="middle" style="white-space: pre;" direction="ltr" dominant-baseline="alphabetic">(443)</text></g><g stroke-linecap="round" transform="translate(960.5160310035245 510.65960668152235) rotate(0 122.5 42.664010624169975)"><path d="M21.33 0 C94.45 -0.55, 171.03 -0.23, 223.67 0 M21.33 0 C93.9 1.88, 167.24 0.58, 223.67 0 M223.67 0 C237.08 1.73, 244.92 6.52, 245 21.33 M223.67 0 C237.08 -1.21, 246.42 7.31, 245 21.33 M245 21.33 C246.44 32.76, 245.56 40.04, 245 64 M245 21.33 C245.03 34.23, 245.73 45.11, 245 64 M245 64 C244.31 77.63, 236.72 83.49, 223.67 85.33 M245 64 C244.57 78.94, 237.27 86.07, 223.67 85.33 M223.67 85.33 C180.08 83.9, 134.54 82.92, 21.33 85.33 M223.67 85.33 C171.03 85.22, 119.25 85.02, 21.33 85.33 M21.33 85.33 C6.32 85.93, -1.83 79.23, 0 64 M21.33 85.33 C8.05 84.39, 2.17 80.26, 0 64 M0 64 C-0.56 51.25, 1.63 37.52, 0 21.33 M0 64 C-0.48 55.21, -0.23 45.13, 0 21.33 M0 21.33 C1.47 6.16, 9.07 1.62, 21.33 0 M0 21.33 C-1.5 6.82, 5.39 -0.18, 21.33 0" stroke="#1e1e1e" stroke-width="2" fill="none"></path></g><g transform="translate(1044.3576981788174 539.8236173056923) rotate(0 38.65833282470703 13.5)"><text x="38.65833282470703" y="20.08" font-family="Nunito, Segoe UI Emoji" font-size="20px" fill="#1e1e1e" text-anchor="middle" style="white-space: pre;" direction="ltr" dominant-baseline="alphabetic">Backend</text></g><g stroke-linecap="round" transform="translate(125.00423691005699 230.70138401662643) rotate(0 138.5 35.5)"><path d="M17.75 0 C91.42 -1.39, 163.65 -0.64, 259.25 0 M17.75 0 C91.73 -1.89, 166.24 -1.76, 259.25 0 M259.25 0 C271.15 0.44, 275.35 4.21, 277 17.75 M259.25 0 C270.57 0.23, 279.16 6.98, 277 17.75 M277 17.75 C276.34 31.89, 276.21 44.75, 277 53.25 M277 17.75 C277.55 30.03, 276.88 42.77, 277 53.25 M277 53.25 C278.65 65.45, 270.58 69.27, 259.25 71 M277 53.25 C278.87 66.37, 269.35 71.71, 259.25 71 M259.25 71 C198.06 68.32, 135.2 68.23, 17.75 71 M259.25 71 C177.51 69.55, 95.3 70.09, 17.75 71 M17.75 71 C5.84 72.18, 0.77 64.39, 0 53.25 M17.75 71 C3.94 68.72, -0.93 63.75, 0 53.25 M0 53.25 C0.47 44.13, -0.87 34.54, 0 17.75 M0 53.25 C0.45 44.31, 0.55 36.81, 0 17.75 M0 17.75 C0.02 7.16, 7.65 -0.73, 17.75 0 M0 17.75 C-2.1 6.54, 4.11 -0.72, 17.75 0" stroke="#1e1e1e" stroke-width="2" fill="none"></path></g><g transform="translate(222.92923614711754 252.70138401662643) rotate(0 40.57500076293945 13.5)"><text x="40.57500076293945" y="20.08" font-family="Nunito, Segoe UI Emoji" font-size="20px" fill="#1e1e1e" text-anchor="middle" style="white-space: pre;" direction="ltr" dominant-baseline="alphabetic">Endpoint</text></g><g stroke-linecap="round" transform="translate(125.26373858589346 449.51526341964933) rotate(0 138.50000000000003 35.5)"><path d="M17.75 0 C89.47 -0.11, 161.9 1.75, 259.25 0 M17.75 0 C102.11 -0.57, 185.45 -0.51, 259.25 0 M259.25 0 C271.91 -0.89, 276.12 5.21, 277 17.75 M259.25 0 C271.4 -0.93, 277.88 4.72, 277 17.75 M277 17.75 C275.6 25.39, 278.66 34.77, 277 53.25 M277 17.75 C275.91 25.13, 276.28 33.46, 277 53.25 M277 53.25 C278.64 66.13, 271.62 72.02, 259.25 71 M277 53.25 C275.29 64.41, 269.55 68.84, 259.25 71 M259.25 71 C198.58 70.33, 140.47 73.21, 17.75 71 M259.25 71 C173.07 71.22, 85.08 71.08, 17.75 71 M17.75 71 C4.54 69.84, 1.66 64.26, 0 53.25 M17.75 71 C5.1 71.13, 0.16 66.67, 0 53.25 M0 53.25 C-0.89 47.21, -1.95 37.2, 0 17.75 M0 53.25 C0.83 41.11, -0.9 26.26, 0 17.75 M0 17.75 C0 7.27, 4.31 -1.48, 17.75 0 M0 17.75 C0.57 6.68, 7.52 -0.7, 17.75 0" stroke="#1e1e1e" stroke-width="2" fill="none"></path></g><g transform="translate(210.53040499824698 471.51526341964933) rotate(0 53.23333358764651 13.5)"><text x="53.233333587646484" y="20.08" font-family="Nunito, Segoe UI Emoji" font-size="20px" fill="#1e1e1e" text-anchor="middle" style="white-space: pre;" direction="ltr" dominant-baseline="alphabetic">DNS Server</text></g><g mask="url(#mask-uD_KJ4xDt5e5REO-CiP1P)" stroke-linecap="round"><g transform="translate(192.1841388400308 303.2825328695951) rotate(0 -11.410794519617241 72.88856353260545)"><path d="M0.61 0.98 C-2.93 12.52, -21.76 44.87, -22.42 69.05 C-23.08 93.23, -6.77 133.1, -3.33 146.06 M-0.52 0.45 C-4.08 11.7, -23.07 42.99, -23.15 67.51 C-23.24 92.02, -4.69 134.65, -1.05 147.53" stroke="#1e1e1e" stroke-width="2" fill="none"></path></g><g transform="translate(192.1841388400308 303.2825328695951) rotate(0 -11.410794519617241 72.88856353260545)"><path d="M-16.86 128.17 C-12.07 132.67, -8.66 133.97, -1.05 147.53 M-16.86 128.17 C-11.22 134.48, -6.13 141.55, -1.05 147.53" stroke="#1e1e1e" stroke-width="2" fill="none"></path></g><g transform="translate(192.1841388400308 303.2825328695951) rotate(0 -11.410794519617241 72.88856353260545)"><path d="M-0.72 122.53 C0.81 128.26, 0.95 130.69, -1.05 147.53 M-0.72 122.53 C-0.29 130.81, -0.42 139.7, -1.05 147.53" stroke="#1e1e1e" stroke-width="2" fill="none"></path></g></g><mask id="mask-uD_KJ4xDt5e5REO-CiP1P"><rect x="0" y="0" fill="#fff" width="315.0057278792653" height="549.0596599348061"></rect><rect x="61.279213924331486" y="357.72177954847285" fill="#000" width="216.1666717529297" height="27" opacity="1"></rect></mask><g transform="translate(61.279213924331486 357.72177954847297) rotate(0 119.63462128744237 19.5510525391023)"><text x="108.08333587646484" y="20.08" font-family="Nunito, Segoe UI Emoji" font-size="20px" fill="#1e1e1e" text-anchor="middle" style="white-space: pre;" direction="ltr" dominant-baseline="alphabetic">DNS Request (53 / 853)</text></g><g stroke-linecap="round" transform="translate(125.26373858589346 608.0866919910777) rotate(0 138.50000000000003 35.5)"><path d="M17.75 0 C103.66 1.87, 192.5 0.93, 259.25 0 M17.75 0 C110.51 -1.16, 201.68 -1.15, 259.25 0 M259.25 0 C272.75 1.96, 276.52 5.62, 277 17.75 M259.25 0 C271.34 -0.87, 277.23 6.29, 277 17.75 M277 17.75 C276.24 28.54, 276.68 35.96, 277 53.25 M277 17.75 C277.37 31.88, 277.04 46.49, 277 53.25 M277 53.25 C276.99 66.61, 272.13 71.53, 259.25 71 M277 53.25 C279 64.28, 269.85 69.3, 259.25 71 M259.25 71 C189 72.06, 120.01 70.6, 17.75 71 M259.25 71 C200.95 70.91, 142.55 71.61, 17.75 71 M17.75 71 C7.35 70.15, 1.17 66.4, 0 53.25 M17.75 71 C4.27 73.05, -0.2 65.34, 0 53.25 M0 53.25 C-0.97 45.78, 1.44 37.74, 0 17.75 M0 53.25 C-0.41 40.85, 0.82 27.67, 0 17.75 M0 17.75 C-1.87 4.79, 4.94 -0.3, 17.75 0 M0 17.75 C1.3 4.32, 4.69 -1.9, 17.75 0" stroke="#1e1e1e" stroke-width="2" fill="none"></path></g><g transform="translate(198.93040270942862 630.0866919910777) rotate(0 64.83333587646487 13.5)"><text x="64.83333587646484" y="20.08" font-family="Nunito, Segoe UI Emoji" font-size="20px" fill="#1e1e1e" text-anchor="middle" style="white-space: pre;" direction="ltr" dominant-baseline="alphabetic">DNS Registrar</text></g><g stroke-linecap="round"><g transform="translate(328.3385961670858 520.3290011666757) rotate(0 1.3498178742112827 43.28666726601972)"><path d="M0.62 -0.9 C0.77 13.32, 1.77 71.04, 1.94 85.54" stroke="#1e1e1e" stroke-width="2.5" fill="none" stroke-dasharray="1.5 8"></path></g><g transform="translate(328.3385961670858 520.3290011666757) rotate(0 1.3498178742112827 43.28666726601972)"><path d="M-6.96 62.17 C-4.97 69.89, -1.76 78.39, 1.94 85.54" stroke="#1e1e1e" stroke-width="2.5" fill="none" stroke-dasharray="1.5 6"></path></g><g transform="translate(328.3385961670858 520.3290011666757) rotate(0 1.3498178742112827 43.28666726601972)"><path d="M10.14 61.92 C5.52 69.83, 2.12 78.42, 1.94 85.54" stroke="#1e1e1e" stroke-width="2.5" fill="none" stroke-dasharray="1.5 6"></path></g></g><mask></mask><g stroke-linecap="round"><g transform="translate(208.60488766813546 607.8335643864491) rotate(0 -0.7091558318144848 -43.532586681085434)"><path d="M0 1.09 C-0.1 -13.45, -0.05 -71.64, -0.48 -86.29" stroke="#1e1e1e" stroke-width="2.5" fill="none" stroke-dasharray="1.5 8"></path></g><g transform="translate(208.60488766813546 607.8335643864491) rotate(0 -0.7091558318144848 -43.532586681085434)"><path d="M8.36 -62.9 C7.24 -68.6, 3.98 -79.38, -0.48 -86.29" stroke="#1e1e1e" stroke-width="2.5" fill="none" stroke-dasharray="1.5 6"></path></g><g transform="translate(208.60488766813546 607.8335643864491) rotate(0 -0.7091558318144848 -43.532586681085434)"><path d="M-8.74 -62.69 C-4.55 -68.46, -2.5 -79.3, -0.48 -86.29" stroke="#1e1e1e" stroke-width="2.5" fill="none" stroke-dasharray="1.5 6"></path></g></g><mask></mask><g transform="translate(85.73531260726799 545.3169139603435) rotate(0 178.67500305175778 13.5)"><text x="0" y="20.08" font-family="Nunito, Segoe UI Emoji" font-size="20px" fill="#1e1e1e" text-anchor="start" style="white-space: pre;" direction="ltr" dominant-baseline="alphabetic">Update DNS Server Records as per TTL</text></g><g stroke-linecap="round" transform="translate(1036.8677669170133 706.3798140770255) rotate(0 122.5 45.5)"><path d="M22.75 0 C76.92 -2.18, 130.59 -1.01, 222.25 0 M22.75 0 C78.62 -0.36, 135.83 0.51, 222.25 0 M222.25 0 C236.26 -0.47, 244.35 9.38, 245 22.75 M222.25 0 C237.61 -1.49, 243.31 5.65, 245 22.75 M245 22.75 C246.34 38.85, 244.47 60.11, 245 68.25 M245 22.75 C245.62 40.57, 245.07 57.17, 245 68.25 M245 68.25 C246.94 84.87, 235.94 90.69, 222.25 91 M245 68.25 C246.61 84.91, 236.6 93.04, 222.25 91 M222.25 91 C163.21 91.84, 106.89 91.19, 22.75 91 M222.25 91 C147.51 92.56, 73.17 92.3, 22.75 91 M22.75 91 C7.64 91.02, -0.67 83.79, 0 68.25 M22.75 91 C8.72 90.68, -1.43 83.9, 0 68.25 M0 68.25 C-0.41 54.7, -1.22 43.01, 0 22.75 M0 68.25 C1.17 54.83, 0.35 40.63, 0 22.75 M0 22.75 C-1.85 8.7, 9.13 0.62, 22.75 0 M0 22.75 C0.74 9.23, 9.64 -2.02, 22.75 0" stroke="#1e1e1e" stroke-width="2" fill="none"></path></g><g transform="translate(1049.0010982158415 711.3798140770255) rotate(0 110.36666870117188 40.5)"><text x="110.36666870117188" y="20.08" font-family="Nunito, Segoe UI Emoji" font-size="20px" fill="#1e1e1e" text-anchor="middle" style="white-space: pre;" direction="ltr" dominant-baseline="alphabetic">ACL Evaluated &amp;</text><text x="110.36666870117188" y="47.08" font-family="Nunito, Segoe UI Emoji" font-size="20px" fill="#1e1e1e" text-anchor="middle" style="white-space: pre;" direction="ltr" dominant-baseline="alphabetic">Matched to Action</text><text x="110.36666870117188" y="74.08" font-family="Nunito, Segoe UI Emoji" font-size="20px" fill="#1e1e1e" text-anchor="middle" style="white-space: pre;" direction="ltr" dominant-baseline="alphabetic">SSL Certificate Attached</text></g><g mask="url(#mask-pZypQWkN9JaVDow9Rk-4B)" stroke-linecap="round"><g transform="translate(1420.6639994036605 676.4303164761282) rotate(0 -68.92591944944604 39.51059187151924)"><path d="M-0.61 -0.11 C-6.27 9.15, -11.8 41.89, -34.58 55 C-57.35 68.12, -120.03 74.74, -137.27 78.6 M1.26 -1.22 C-3.98 7.73, -9.26 39.58, -32.43 53.06 C-55.59 66.55, -120.16 75.41, -137.74 79.69" stroke="#1e1e1e" stroke-width="2" fill="none"></path></g><g transform="translate(1420.6639994036605 676.4303164761282) rotate(0 -68.92591944944604 39.51059187151924)"><path d="M-116.31 66.8 C-121.88 68.11, -126.42 74.05, -137.74 79.69 M-116.31 66.8 C-121.44 70.16, -128.53 72.88, -137.74 79.69" stroke="#1e1e1e" stroke-width="2" fill="none"></path></g><g transform="translate(1420.6639994036605 676.4303164761282) rotate(0 -68.92591944944604 39.51059187151924)"><path d="M-113.04 83.59 C-119.33 80.71, -124.69 82.49, -137.74 79.69 M-113.04 83.59 C-119.01 82.48, -126.97 80.76, -137.74 79.69" stroke="#1e1e1e" stroke-width="2" fill="none"></path></g></g><mask id="mask-pZypQWkN9JaVDow9Rk-4B"><rect x="0" y="0" fill="#fff" width="1658.5158383025525" height="855.4515002191666"></rect><rect x="1327.5830337656128" y="717.5899752117772" fill="#000" width="119.1500015258789" height="27" opacity="1"></rect></mask><g transform="translate(1327.5830337656125 717.5899752117772) rotate(0 24.84517164596673 -1.9231143950378282)"><text x="59.57500076293945" y="20.08" font-family="Nunito, Segoe UI Emoji" font-size="20px" fill="#1e1e1e" text-anchor="middle" style="white-space: pre;" direction="ltr" dominant-baseline="alphabetic">HTTPS (443)</text></g><g mask="url(#mask-oFOVn9aqzmaTSGMnrJkXb)" stroke-linecap="round"><g transform="translate(1104.6765012628002 707.4043656005329) rotate(0 -19.899374364437108 -55.42908208560851)"><path d="M1.14 -0.78 C-3.12 -9.69, -18.49 -34.7, -25.12 -53.03 C-31.74 -71.36, -36.12 -101.14, -38.63 -110.76 M0.27 1.42 C-3.64 -7.9, -16.33 -36.53, -22.84 -55 C-29.35 -73.47, -35.9 -100.29, -38.79 -109.39" stroke="#1e1e1e" stroke-width="2" fill="none"></path></g><g transform="translate(1104.6765012628002 707.4043656005329) rotate(0 -19.899374364437108 -55.42908208560851)"><path d="M-24.14 -89.13 C-30.43 -97.17, -33.57 -100.66, -38.79 -109.39 M-24.14 -89.13 C-28.24 -96.27, -33.8 -101.64, -38.79 -109.39" stroke="#1e1e1e" stroke-width="2" fill="none"></path></g><g transform="translate(1104.6765012628002 707.4043656005329) rotate(0 -19.899374364437108 -55.42908208560851)"><path d="M-40.58 -84.45 C-41.37 -94.22, -38.99 -99.28, -38.79 -109.39 M-40.58 -84.45 C-39.6 -93.05, -40.08 -99.86, -38.79 -109.39" stroke="#1e1e1e" stroke-width="2" fill="none"></path></g></g><mask id="mask-oFOVn9aqzmaTSGMnrJkXb"><rect x="0" y="0" fill="#fff" width="1244.4752499916744" height="918.2625297717499"></rect><rect x="1020.810125399079" y="640.5903054448876" fill="#000" width="119.1500015258789" height="27" opacity="1"></rect></mask><g transform="translate(1020.8101253990787 640.5903054448876) rotate(0 65.0407471307575 12.147498838334627)"><text x="59.57500076293945" y="20.08" font-family="Nunito, Segoe UI Emoji" font-size="20px" fill="#1e1e1e" text-anchor="middle" style="white-space: pre;" direction="ltr" dominant-baseline="alphabetic">HTTPS (443)</text></g><g mask="url(#mask-GIcT5vEMenIQ3FvE3Xtrm)" stroke-linecap="round"><g transform="translate(1112.5760608123842 506.7704638094286) rotate(0 16.441053259146543 -121.65511306181384)"><path d="M0.51 -0.28 C5.92 -18.11, 27.28 -65.6, 31.77 -106.05 C36.26 -146.49, 28.19 -219.97, 27.45 -242.96 M-0.68 -1.47 C5.14 -19.77, 29.36 -67.41, 33.9 -108.02 C38.45 -148.63, 27.68 -222.58, 26.61 -245.12" stroke="#1e1e1e" stroke-width="2" fill="none"></path></g><g transform="translate(1112.5760608123842 506.7704638094286) rotate(0 16.441053259146543 -121.65511306181384)"><path d="M37.26 -222.51 C34.04 -229.78, 32.41 -233.63, 26.61 -245.12 M37.26 -222.51 C34.01 -230.94, 30.35 -237.48, 26.61 -245.12" stroke="#1e1e1e" stroke-width="2" fill="none"></path></g><g transform="translate(1112.5760608123842 506.7704638094286) rotate(0 16.441053259146543 -121.65511306181384)"><path d="M20.23 -220.95 C21.11 -228.67, 23.6 -232.9, 26.61 -245.12 M20.23 -220.95 C22.59 -229.8, 24.53 -236.85, 26.61 -245.12" stroke="#1e1e1e" stroke-width="2" fill="none"></path></g></g><mask id="mask-GIcT5vEMenIQ3FvE3Xtrm"><rect x="0" y="0" fill="#fff" width="1245.4581673306773" height="850.0806899330562"></rect><rect x="1085.8831665677378" y="386.93824701195217" fill="#000" width="119.1500015258789" height="27" opacity="1"></rect></mask><g transform="translate(1085.8831665677376 386.93824701195217) rotate(0 43.86045138518364 -2.8699427527585613)"><text x="59.57500076293945" y="20.08" font-family="Nunito, Segoe UI Emoji" font-size="20px" fill="#1e1e1e" text-anchor="middle" style="white-space: pre;" direction="ltr" dominant-baseline="alphabetic">HTTPS (443)</text></g><g mask="url(#mask-ucCIv4ChRqwHcV6dhhTBq)" stroke-linecap="round"><g transform="translate(352.47232748120564 446.8384110837266) rotate(0 8.71071540946349 -72.44194973123572)"><path d="M0.24 0.76 C3.05 -12.25, 16.46 -53.15, 16.61 -77.57 C16.76 -101.99, 3.8 -134.54, 1.15 -145.77 M-1.1 0.11 C2.12 -12.79, 18.67 -52.19, 18.9 -76.36 C19.12 -100.54, 3.29 -133.66, 0.23 -144.91" stroke="#1e1e1e" stroke-width="2" fill="none"></path></g><g transform="translate(352.47232748120564 446.8384110837266) rotate(0 8.71071540946349 -72.44194973123572)"><path d="M16.18 -125.66 C12.94 -132.32, 6.21 -136.79, 0.23 -144.91 M16.18 -125.66 C11.96 -130.5, 10.01 -134.79, 0.23 -144.91" stroke="#1e1e1e" stroke-width="2" fill="none"></path></g><g transform="translate(352.47232748120564 446.8384110837266) rotate(0 8.71071540946349 -72.44194973123572)"><path d="M0.07 -119.91 C1.28 -128.2, -0.98 -134.26, 0.23 -144.91 M0.07 -119.91 C-0.46 -126.05, 1.23 -131.64, 0.23 -144.91" stroke="#1e1e1e" stroke-width="2" fill="none"></path></g></g><mask id="mask-ucCIv4ChRqwHcV6dhhTBq"><rect x="0" y="0" fill="#fff" width="469.8937583001326" height="691.7223105461981"></rect><rect x="304.6437583001326" y="356.3937583001331" fill="#000" width="130.5" height="27" opacity="1"></rect></mask><g transform="translate(304.6437583001326 356.39375830013313) rotate(0 56.72802807524681 17.940736497164778)"><text x="65.25" y="20.08" font-family="Nunito, Segoe UI Emoji" font-size="20px" fill="#1e1e1e" text-anchor="middle" style="white-space: pre;" direction="ltr" dominant-baseline="alphabetic">DNS Resolved</text></g><g mask="url(#mask-DJKmbIF4P1pFrHfviyrTq)" stroke-linecap="round"><g transform="translate(1142.1029719349326 265.60643653512375) rotate(0 -169.6494810043904 -68.04226209226299)"><path d="M-1.09 -0.35 C-27.01 -22.99, -97.98 -128.51, -154.34 -135.39 C-210.7 -142.27, -308.33 -57.18, -339.25 -41.64 M0.54 -1.58 C-25.12 -24.6, -95.39 -130.7, -152.15 -137.15 C-208.9 -143.6, -308.69 -56.26, -339.98 -40.26" stroke="#1e1e1e" stroke-width="2" fill="none"></path></g><g transform="translate(1142.1029719349326 265.60643653512375) rotate(0 -169.6494810043904 -68.04226209226299)"><path d="M-325.21 -60.43 C-331.63 -54.16, -335.79 -44.37, -339.98 -40.26 M-325.21 -60.43 C-330.34 -53.61, -334.4 -47.57, -339.98 -40.26" stroke="#1e1e1e" stroke-width="2" fill="none"></path></g><g transform="translate(1142.1029719349326 265.60643653512375) rotate(0 -169.6494810043904 -68.04226209226299)"><path d="M-315.7 -46.22 C-325.97 -45.71, -333.92 -41.59, -339.98 -40.26 M-315.7 -46.22 C-323.7 -43.81, -330.7 -42.16, -339.98 -40.26" stroke="#1e1e1e" stroke-width="2" fill="none"></path></g></g><mask id="mask-DJKmbIF4P1pFrHfviyrTq"><rect x="0" y="0" fill="#fff" width="1581.4019339437134" height="501.69096071964975"></rect><rect x="929.1766592636204" y="116.0219123505978" fill="#000" width="119.1500015258789" height="27" opacity="1"></rect></mask><g transform="translate(929.1766592636206 116.02191235059777) rotate(0 43.205444230252226 80.66231775566719)"><text x="59.57500076293945" y="20.08" font-family="Nunito, Segoe UI Emoji" font-size="20px" fill="#1e1e1e" text-anchor="middle" style="white-space: pre;" direction="ltr" dominant-baseline="alphabetic">HTTPS (443)</text></g><g mask="url(#mask-7Ae9_0nZVXepcaMLFzOV4)" stroke-linecap="round"><g transform="translate(803.5989282427234 223.63103904580527) rotate(0 -250.48437866380334 -43.236205712604814)"><path d="M-0.76 0.78 C-47.25 -14.64, -194.91 -93.63, -278.11 -92.63 C-361.31 -91.63, -462.65 -9.7, -499.97 6.78 M1.04 0.14 C-45.16 -15.06, -192.44 -91.78, -275.98 -91.02 C-359.52 -90.26, -462.49 -11.7, -500.22 4.69" stroke="#1e1e1e" stroke-width="2" fill="none"></path></g><g transform="translate(803.5989282427234 223.63103904580527) rotate(0 -250.48437866380334 -43.236205712604814)"><path d="M-483.95 -14.29 C-488.63 -9.29, -495.64 1.17, -500.22 4.69 M-483.95 -14.29 C-489.8 -7.7, -495.68 -0.66, -500.22 4.69" stroke="#1e1e1e" stroke-width="2" fill="none"></path></g><g transform="translate(803.5989282427234 223.63103904580527) rotate(0 -250.48437866380334 -43.236205712604814)"><path d="M-475.55 0.61 C-483.3 0.1, -493.38 5.1, -500.22 4.69 M-475.55 0.61 C-484.13 2.14, -492.86 4.11, -500.22 4.69" stroke="#1e1e1e" stroke-width="2" fill="none"></path></g></g><mask id="mask-7Ae9_0nZVXepcaMLFzOV4"><rect x="0" y="0" fill="#fff" width="1404.56768557033" height="422.72083851433047"></rect><rect x="467.02526484131" y="117.34993359893781" fill="#000" width="119.1500015258789" height="27" opacity="1"></rect></mask><g transform="translate(467.02526484131 117.34993359893784) rotate(0 86.98434721342915 63.35187159531358)"><text x="59.57500076293945" y="20.08" font-family="Nunito, Segoe UI Emoji" font-size="20px" fill="#1e1e1e" text-anchor="middle" style="white-space: pre;" direction="ltr" dominant-baseline="alphabetic">HTTPS (443)</text></g><g stroke-linecap="round" transform="translate(10 326.06905710491384) rotate(0 254.31606905710487 223.77158034528549)"><path d="M32 0 C197.44 -2.02, 361.21 -2.24, 476.63 0 M32 0 C181.74 1.56, 330.68 0.82, 476.63 0 M476.63 0 C496.18 1.14, 507.47 9.92, 508.63 32 M476.63 0 C497.8 -1.57, 506.37 9.7, 508.63 32 M508.63 32 C510.07 130.21, 510.72 227.77, 508.63 415.54 M508.63 32 C506.39 167.71, 506.17 303.26, 508.63 415.54 M508.63 415.54 C507.08 437.08, 496.52 449.11, 476.63 447.54 M508.63 415.54 C509.37 438.16, 500.12 447.8, 476.63 447.54 M476.63 447.54 C362.1 447.39, 248.71 446.53, 32 447.54 M476.63 447.54 C359.52 448.79, 241.45 449.54, 32 447.54 M32 447.54 C10.3 446.11, -1.03 435.68, 0 415.54 M32 447.54 C10.95 449.55, 0.73 436.48, 0 415.54 M0 415.54 C-0.66 268.72, -0.22 122.39, 0 32 M0 415.54 C0.84 268.63, 1.34 120.67, 0 32 M0 32 C-1.82 8.89, 11.37 1.41, 32 0 M0 32 C0.84 12.03, 11.76 0.23, 32 0" stroke="#1e1e1e" stroke-width="2" fill="none"></path></g><g transform="translate(158.73837981407678 703.0512616201861) rotate(0 97.44166564941406 24.30000000000001)"><text x="0" y="36.144000000000005" font-family="Nunito, Segoe UI Emoji" font-size="36px" fill="#e03131" text-anchor="start" style="white-space: pre;" direction="ltr" dominant-baseline="alphabetic">Public DNS </text></g><g transform="translate(1563.7848605577688 724.4754316069059) rotate(0 73.19999694824219 24.30000000000001)"><text x="0" y="36.144000000000005" font-family="Nunito, Segoe UI Emoji" font-size="36px" fill="#2f9e44" text-anchor="start" style="white-space: pre;" direction="ltr" dominant-baseline="alphabetic">HAProxy</text></g><g stroke-linecap="round" transform="translate(606.2815405046479 10) rotate(0 370.5179282868526 172.64276228419652)"><path d="M32 0 C300.92 0.75, 568.13 1.21, 709.04 0 M32 0 C215.19 -2.39, 398.38 -1.89, 709.04 0 M709.04 0 C731.55 -1.6, 740.9 11.72, 741.04 32 M709.04 0 C729.85 -1.99, 742.77 8.39, 741.04 32 M741.04 32 C738.48 96.55, 740.48 159.43, 741.04 313.29 M741.04 32 C743.38 116.08, 743.23 201.48, 741.04 313.29 M741.04 313.29 C741.1 333.84, 728.83 343.64, 709.04 345.29 M741.04 313.29 C742.84 333.61, 728.56 343.39, 709.04 345.29 M709.04 345.29 C442.99 343.63, 177.47 344.36, 32 345.29 M709.04 345.29 C484.93 347.76, 260.28 347.61, 32 345.29 M32 345.29 C11.47 347.24, 1.14 334.35, 0 313.29 M32 345.29 C8.66 344.62, -1.91 334.92, 0 313.29 M0 313.29 C1.53 206.27, 2.21 96.56, 0 32 M0 313.29 C-0.1 225.59, 0.2 138.64, 0 32 M0 32 C-0.73 8.94, 11.14 -1.99, 32 0 M0 32 C0.73 11.02, 9.04 -1.83, 32 0" stroke="#1e1e1e" stroke-width="2" fill="none"></path></g><g transform="translate(693.9309428950859 63.120849933598834) rotate(0 65.92500305175781 24.299999999999997)"><text x="0" y="36.144000000000005" font-family="Nunito, Segoe UI Emoji" font-size="36px" fill="#f08c00" text-anchor="start" style="white-space: pre;" direction="ltr" dominant-baseline="alphabetic">pfSense</text></g><g stroke-linecap="round" transform="translate(899.774236387782 369.8937583001327) rotate(0 443.559096945551 231.07569721115533)"><path d="M32 0 C221.07 -0.9, 409.07 0.16, 855.12 0 M32 0 C359.79 0.61, 686.9 0.76, 855.12 0 M855.12 0 C875.78 -0.07, 885.42 9.9, 887.12 32 M855.12 0 C874.83 0.2, 888.75 9.3, 887.12 32 M887.12 32 C889.73 115.98, 888.68 199.57, 887.12 430.15 M887.12 32 C888.17 152.83, 888.84 273.63, 887.12 430.15 M887.12 430.15 C887.7 449.69, 875.08 460.63, 855.12 462.15 M887.12 430.15 C887.1 452.76, 877.99 464.01, 855.12 462.15 M855.12 462.15 C678.72 465.11, 503.46 464.63, 32 462.15 M855.12 462.15 C632.13 458.94, 409.81 459.05, 32 462.15 M32 462.15 C12.52 462.26, 1.6 450.98, 0 430.15 M32 462.15 C11.5 463.16, 1.1 449.88, 0 430.15 M0 430.15 C0.5 278.4, -1.09 127.05, 0 32 M0 430.15 C-0.73 301.47, -0.78 171.96, 0 32 M0 32 C0.1 10.22, 9.64 -0.92, 32 0 M0 32 C-1.68 9.44, 11.99 2.04, 32 0" stroke="#1e1e1e" stroke-width="2" fill="none"></path></g></svg>